<?xml version="1.0" encoding="UTF-8"?>
<!DOCTYPE svg PUBLIC "-//W3C//DTD SVG 1.1//EN" "http://www.w3.org/Graphics/SVG/1.1/DTD/svg11.dtd">
<svg xmlns="http://www.w3.org/2000/svg" version="1.1" width="178px" height="179px" style="shape-rendering:geometricPrecision; text-rendering:geometricPrecision; image-rendering:optimizeQuality; fill-rule:evenodd; clip-rule:evenodd" xmlns:xlink="http://www.w3.org/1999/xlink">
<g><path style="opacity:0.91" fill="#7286f5" d="M 79.5,-0.5 C 82.8333,-0.5 86.1667,-0.5 89.5,-0.5C 89.6534,1.38552 89.32,3.38552 88.5,5.5C 84.9009,6.34392 81.2343,6.67726 77.5,6.5C 77.8879,4.64093 77.8879,2.64093 77.5,0.5C 78.4916,0.67158 79.1583,0.338246 79.5,-0.5 Z"/></g>
<g><path style="opacity:0.928" fill="#728cf4" d="M 89.5,-0.5 C 92.8333,-0.5 96.1667,-0.5 99.5,-0.5C 99.5,0.166667 99.8333,0.5 100.5,0.5C 99.5868,2.08609 99.5868,3.58609 100.5,5C 99.5842,5.27842 98.9175,5.77842 98.5,6.5C 95.1401,6.38413 91.8067,6.0508 88.5,5.5C 89.32,3.38552 89.6534,1.38552 89.5,-0.5 Z"/></g>
<g><path style="opacity:0.914" fill="#737ff5" d="M 77.5,0.5 C 77.8879,2.64093 77.8879,4.64093 77.5,6.5C 73.2277,7.65094 68.8943,8.65094 64.5,9.5C 64.6747,7.3792 64.3414,5.3792 63.5,3.5C 68.0082,1.87378 72.6748,0.873779 77.5,0.5 Z"/></g>
<g><path style="opacity:0.953" fill="#7192f4" d="M 100.5,0.5 C 104.335,0.416504 108.002,1.08317 111.5,2.5C 111.918,3.22158 112.584,3.72158 113.5,4C 112.359,4.74117 112.359,5.57451 113.5,6.5C 113.145,7.5223 112.478,8.18897 111.5,8.5C 107.167,7.83333 102.833,7.16667 98.5,6.5C 98.9175,5.77842 99.5842,5.27842 100.5,5C 99.5868,3.58609 99.5868,2.08609 100.5,0.5 Z"/></g>
<g><path style="opacity:0.94" fill="#7478f5" d="M 63.5,3.5 C 64.3414,5.3792 64.6747,7.3792 64.5,9.5C 60.5763,11.1472 56.5763,12.8139 52.5,14.5C 53.2186,12.2362 53.552,9.90291 53.5,7.5C 56.54,5.65412 59.8733,4.32079 63.5,3.5 Z"/></g>
<g><path style="opacity:0.929" fill="#7098f3" d="M 111.5,2.5 C 115.965,3.4328 120.298,4.76614 124.5,6.5C 123.952,8.62642 123.285,10.6264 122.5,12.5C 118.605,11.5376 114.939,10.2043 111.5,8.5C 112.478,8.18897 113.145,7.5223 113.5,6.5C 112.359,5.57451 112.359,4.74117 113.5,4C 112.584,3.72158 111.918,3.22158 111.5,2.5 Z"/></g>
<g><path style="opacity:0.936" fill="#7472f4" d="M 53.5,7.5 C 53.552,9.90291 53.2186,12.2362 52.5,14.5C 48.9641,17.1909 45.1308,19.5243 41,21.5C 36.532,19.3954 36.3653,16.8954 40.5,14C 44.5765,11.2951 48.9099,9.12839 53.5,7.5 Z"/></g>
<g><path style="opacity:0.952" fill="#6f9bf3" d="M 124.5,6.5 C 125.71,6.93205 126.71,7.59872 127.5,8.5C 127.2,10.5445 126.867,12.5445 126.5,14.5C 124.847,14.3404 123.514,13.6737 122.5,12.5C 123.285,10.6264 123.952,8.62642 124.5,6.5 Z"/></g>
<g><path style="opacity:0.904" fill="#6f9ff4" d="M 127.5,8.5 C 132.368,10.3815 136.701,13.0482 140.5,16.5C 139.821,18.5879 139.488,20.5879 139.5,22.5C 135.162,19.8256 130.828,17.1589 126.5,14.5C 126.867,12.5445 127.2,10.5445 127.5,8.5 Z"/></g>
<g><path style="opacity:0.933" fill="#6ea5f4" d="M 154.5,16.5 C 153.02,19.3647 152.02,22.1981 151.5,25C 152.154,28.0087 152.154,30.842 151.5,33.5C 147.069,33.7693 142.735,33.436 138.5,32.5C 137.047,31.1751 137.381,30.3418 139.5,30C 138.829,29.0138 138.829,27.8471 139.5,26.5C 140.552,26.6495 141.552,26.4828 142.5,26C 141.29,24.9609 140.29,23.7942 139.5,22.5C 139.488,20.5879 139.821,18.5879 140.5,16.5C 143.1,17.9188 145.6,19.5854 148,21.5C 148.175,17.789 148.675,14.1224 149.5,10.5C 153.768,9.7865 155.435,11.7865 154.5,16.5 Z"/></g>
<g><path style="opacity:0.938" fill="#6ea8f4" d="M 154.5,16.5 C 155.629,22.1692 155.629,27.8359 154.5,33.5C 153.313,34.6527 152.313,34.6527 151.5,33.5C 152.154,30.842 152.154,28.0087 151.5,25C 152.02,22.1981 153.02,19.3647 154.5,16.5 Z"/></g>
<g><path style="opacity:0.92" fill="#747af4" d="M 64.5,24.5 C 63.8333,24.5 63.5,24.8333 63.5,25.5C 62.0937,25.9731 61.427,26.9731 61.5,28.5C 59.1403,30.9109 58.1403,33.9109 58.5,37.5C 58.1403,41.0891 59.1403,44.0891 61.5,46.5C 61.3284,47.4916 61.6618,48.1583 62.5,48.5C 62.5,49.1667 62.8333,49.5 63.5,49.5C 63.5,50.1667 63.8333,50.5 64.5,50.5C 64.9174,55.0685 62.9174,56.5685 58.5,55C 50.4832,45.0671 49.6499,34.5671 56,23.5C 57.8518,19.9233 60.5185,18.9233 64,20.5C 64.49,21.7932 64.6567,23.1266 64.5,24.5 Z"/></g>
<g><path style="opacity:0.845" fill="#7098f4" d="M 123.5,25.5 C 122.85,25.1961 122.183,24.8627 121.5,24.5C 120.358,25.8262 119.024,26.8262 117.5,27.5C 117.5,26.8333 117.167,26.5 116.5,26.5C 116.5,25.8333 116.167,25.5 115.5,25.5C 115.5,24.8333 115.167,24.5 114.5,24.5C 113.842,20.3228 115.508,18.8228 119.5,20C 121.464,21.451 122.797,23.2843 123.5,25.5 Z"/></g>
<g><path style="opacity:0.9" fill="#7666f5" d="M 26.5,22.5 C 25.7001,25.756 25.3668,28.9226 25.5,32C 25.6667,32.8333 25.8333,33.6667 26,34.5C 26.8928,33.2888 27.7261,33.2888 28.5,34.5C 28.3764,35.1067 28.0431,35.44 27.5,35.5C 22.3568,40.6606 18.3568,46.6606 15.5,53.5C 14.9057,49.3919 14.9057,45.0586 15.5,40.5C 17.3311,36.846 19.6644,33.5127 22.5,30.5C 21.3112,29.5713 19.9778,29.238 18.5,29.5C 18.0825,28.7784 17.4158,28.2784 16.5,28C 16.4698,26.5707 16.8031,25.0707 17.5,23.5C 20.3915,22.5975 23.3915,22.2641 26.5,22.5 Z"/></g>
<g><path style="opacity:0.959" fill="#756bf5" d="M 27.5,35.5 C 28.0431,35.44 28.3764,35.1067 28.5,34.5C 27.7261,33.2888 26.8928,33.2888 26,34.5C 25.8333,33.6667 25.6667,32.8333 25.5,32C 25.3668,28.9226 25.7001,25.756 26.5,22.5C 28.4672,22.7394 30.3005,22.4061 32,21.5C 34.048,22.0979 35.2147,23.4312 35.5,25.5C 35.0069,32.262 34.0069,38.9286 32.5,45.5C 30.694,46.8587 29.194,46.5254 28,44.5C 27.502,41.5184 27.3354,38.5184 27.5,35.5 Z"/></g>
<g><path style="opacity:0.87" fill="#7662f4" d="M 17.5,23.5 C 16.8031,25.0707 16.4698,26.5707 16.5,28C 17.4158,28.2784 18.0825,28.7784 18.5,29.5C 16.4727,29.6621 14.4727,29.4955 12.5,29C 10.666,24.3252 12.3327,22.4919 17.5,23.5 Z"/></g>
<g><path style="opacity:0.904" fill="#737ef4" d="M 70.5,28.5 C 66.835,32.0389 65.6683,36.3722 67,41.5C 67.2784,42.4158 67.7784,43.0825 68.5,43.5C 68.427,45.0269 69.0937,46.0269 70.5,46.5C 70.7993,51.2602 68.7993,52.5936 64.5,50.5C 63.8333,50.5 63.5,50.1667 63.5,49.5C 62.8333,49.5 62.5,49.1667 62.5,48.5C 62.6716,47.5084 62.3382,46.8417 61.5,46.5C 60.8366,43.5185 60.17,40.5185 59.5,37.5C 60.3284,34.5212 60.9951,31.5212 61.5,28.5C 62.9063,28.0269 63.573,27.0269 63.5,25.5C 64.1667,25.5 64.5,25.1667 64.5,24.5C 68.7993,22.4064 70.7993,23.7398 70.5,28.5 Z"/></g>
<g><path style="opacity:0.962" fill="#7097f4" d="M 114.5,24.5 C 115.167,24.5 115.5,24.8333 115.5,25.5C 116.167,25.5 116.5,25.8333 116.5,26.5C 116.328,27.4916 116.662,28.1583 117.5,28.5C 117.328,29.4916 117.662,30.1583 118.5,30.5C 119.795,36.7001 119.128,42.7001 116.5,48.5C 115.833,48.5 115.5,48.8333 115.5,49.5C 114.833,49.5 114.5,49.8333 114.5,50.5C 110.201,52.5936 108.201,51.2602 108.5,46.5C 112.165,42.9611 113.332,38.6278 112,33.5C 111.303,31.4156 110.136,29.7489 108.5,28.5C 108.201,23.7398 110.201,22.4064 114.5,24.5 Z"/></g>
<g><path style="opacity:0.963" fill="#709bf4" d="M 123.5,25.5 C 129.15,35.8237 128.15,45.657 120.5,55C 116.083,56.5685 114.083,55.0685 114.5,50.5C 115.167,50.5 115.5,50.1667 115.5,49.5C 116.167,49.5 116.5,49.1667 116.5,48.5C 118.41,47.0254 119.576,45.0254 120,42.5C 120.667,39.1667 120.667,35.8333 120,32.5C 119.722,31.5842 119.222,30.9175 118.5,30.5C 118.672,29.5084 118.338,28.8417 117.5,28.5C 117.5,28.1667 117.5,27.8333 117.5,27.5C 119.024,26.8262 120.358,25.8262 121.5,24.5C 122.183,24.8627 122.85,25.1961 123.5,25.5 Z"/></g>
<g><path style="opacity:0.972" fill="#728cf4" d="M 97.5,30.5 C 97.5626,35.6533 97.2292,40.6533 96.5,45.5C 95.6851,46.8366 94.5185,47.8366 93,48.5C 92.8333,50.8333 92.6667,53.1667 92.5,55.5C 92.5286,58.2695 93.1952,60.6028 94.5,62.5C 94.9167,65.0792 94.25,67.2458 92.5,69C 93.1809,72.3158 93.5142,75.8158 93.5,79.5C 89.8333,79.5 86.1667,79.5 82.5,79.5C 82.67,78.1779 82.3366,77.0113 81.5,76C 83.9223,73.888 83.9223,71.888 81.5,70C 82.6011,67.5279 83.6011,65.0279 84.5,62.5C 85.8048,60.6028 86.4714,58.2695 86.5,55.5C 86.4489,52.7471 86.1156,50.0805 85.5,47.5C 86.6656,40.6641 86.6656,33.9974 85.5,27.5C 87.6282,26.3709 89.9615,26.2042 92.5,27C 94.8808,27.2233 96.5475,28.39 97.5,30.5 Z"/></g>
<g><path style="opacity:0.919" fill="#6fa0f3" d="M 139.5,26.5 C 138.829,27.8471 138.829,29.0138 139.5,30C 137.381,30.3418 137.047,31.1751 138.5,32.5C 133.786,33.4351 131.786,31.7684 132.5,27.5C 134.743,26.5258 137.076,26.1924 139.5,26.5 Z"/></g>
<g><path style="opacity:0.918" fill="#7382f4" d="M 70.5,46.5 C 70.573,44.9731 69.9063,43.9731 68.5,43.5C 67.3754,38.3105 68.042,33.3105 70.5,28.5C 73.5418,26.7853 75.8751,27.452 77.5,30.5C 73.5,35.1667 73.5,39.8333 77.5,44.5C 75.8751,47.548 73.5418,48.2147 70.5,46.5 Z"/></g>
<g><path style="opacity:0.939" fill="#7287f4" d="M 85.5,27.5 C 86.6656,33.9974 86.6656,40.6641 85.5,47.5C 78.8345,44.009 77.0012,38.6757 80,31.5C 81.451,29.5359 83.2843,28.2026 85.5,27.5 Z"/></g>
<g><path style="opacity:0.852" fill="#7190f4" d="M 97.5,30.5 C 100.805,34.3617 101.305,38.695 99,43.5C 98.2917,44.3805 97.4584,45.0472 96.5,45.5C 97.2292,40.6533 97.5626,35.6533 97.5,30.5 Z"/></g>
<g><path style="opacity:0.914" fill="#6dacf3" d="M 165.5,43.5 C 162.845,44.4665 162.178,46.1332 163.5,48.5C 163.043,49.2975 162.376,49.6309 161.5,49.5C 158.569,45.9825 157.069,41.9825 157,37.5C 158.388,36.4464 159.888,36.2797 161.5,37C 163.221,38.9438 164.554,41.1105 165.5,43.5 Z"/></g>
<g><path style="opacity:0.957" fill="#7193f4" d="M 108.5,28.5 C 109.65,31.4273 110.65,34.4273 111.5,37.5C 110.65,40.5727 109.65,43.5727 108.5,46.5C 105.458,48.2147 103.125,47.548 101.5,44.5C 105.5,39.8333 105.5,35.1667 101.5,30.5C 103.125,27.452 105.458,26.7853 108.5,28.5 Z"/></g>
<g><path style="opacity:0.915" fill="#7760f5" d="M 15.5,40.5 C 14.9057,45.0586 14.9057,49.3919 15.5,53.5C 6.9633,72.5351 5.29663,92.2018 10.5,112.5C 9.07151,115.072 7.73817,117.739 6.5,120.5C -1.27688,98.0847 -0.776881,75.7514 8,53.5C 10.0217,48.7768 12.5217,44.4434 15.5,40.5 Z"/></g>
<g><path style="opacity:0.936" fill="#6db2f4" d="M 165.5,43.5 C 171.285,53.5257 175.285,64.1924 177.5,75.5C 177.5,75.8333 177.5,76.1667 177.5,76.5C 176.814,77.8484 175.814,79.015 174.5,80C 174.411,83.4623 174.744,87.129 175.5,91C 174.56,97.24 173.56,103.24 172.5,109C 173.239,111.235 173.239,113.235 172.5,115C 173.094,115.464 173.761,115.631 174.5,115.5C 170.358,127.956 164.024,139.122 155.5,149C 159.092,148.498 162.759,148.498 166.5,149C 167.554,150.388 167.72,151.888 167,153.5C 162.706,155.248 158.206,155.915 153.5,155.5C 154.154,152.842 154.154,150.009 153.5,147C 154.167,146.667 154.833,146.333 155.5,146C 154.901,144.378 154.234,142.878 153.5,141.5C 174.353,112.469 177.02,81.8019 161.5,49.5C 162.376,49.6309 163.043,49.2975 163.5,48.5C 162.178,46.1332 162.845,44.4665 165.5,43.5 Z"/></g>
<g><path style="opacity:0.936" fill="#7473f4" d="M 48.5,62.5 C 48.702,64.9496 48.3686,67.283 47.5,69.5C 46.8826,69.6107 46.3826,69.944 46,70.5C 45.5001,84.496 45.3334,98.496 45.5,112.5C 44.8826,112.611 44.3826,112.944 44,113.5C 43.7435,116.557 43.2435,119.557 42.5,122.5C 42.8523,125.85 43.1857,129.517 43.5,133.5C 41.1119,132.781 39.6119,131.115 39,128.5C 38.5006,123.177 38.334,117.844 38.5,112.5C 37.1667,112.5 35.8333,112.5 34.5,112.5C 34.0825,111.778 33.4158,111.278 32.5,111C 33.2266,109.601 33.7266,108.101 34,106.5C 34.6543,107.696 35.1543,107.696 35.5,106.5C 33.1993,104.837 33.1993,103.003 35.5,101C 34.6507,97.8932 34.3174,94.8932 34.5,92C 35.8583,90.1684 36.1916,88.3351 35.5,86.5C 37.3979,86.0037 38.3979,85.337 38.5,84.5C 38.3341,79.4889 38.5007,74.4889 39,69.5C 40.3317,64.6674 43.4984,62.3341 48.5,62.5 Z"/></g>
<g><path style="opacity:0.893" fill="#7479f4" d="M 48.5,62.5 C 51.8333,62.5 55.1667,62.5 58.5,62.5C 59.1667,64.8333 59.8333,67.1667 60.5,69.5C 56.1667,69.5 51.8333,69.5 47.5,69.5C 48.3686,67.283 48.702,64.9496 48.5,62.5 Z"/></g>
<g><path style="opacity:0.915" fill="#7380f4" d="M 58.5,62.5 C 63.1667,62.5 67.8333,62.5 72.5,62.5C 72.7035,64.3904 72.0368,65.8904 70.5,67C 73.1667,68 73.1667,69 70.5,70C 72.4337,71.7287 72.4337,73.7287 70.5,76C 71.2524,76.6708 71.5858,77.5041 71.5,78.5C 68.1571,76.5034 66.4905,73.5034 66.5,69.5C 64.5,69.5 62.5,69.5 60.5,69.5C 59.8333,67.1667 59.1667,64.8333 58.5,62.5 Z"/></g>
<g><path style="opacity:0.977" fill="#7286f5" d="M 72.5,62.5 C 76.5,62.5 80.5,62.5 84.5,62.5C 83.6011,65.0279 82.6011,67.5279 81.5,70C 83.9223,71.888 83.9223,73.888 81.5,76C 82.3366,77.0113 82.67,78.1779 82.5,79.5C 78.7307,79.756 75.0641,79.4227 71.5,78.5C 71.5858,77.5041 71.2524,76.6708 70.5,76C 72.4337,73.7287 72.4337,71.7287 70.5,70C 73.1667,69 73.1667,68 70.5,67C 72.0368,65.8904 72.7035,64.3904 72.5,62.5 Z"/></g>
<g><path style="opacity:0.971" fill="#7192f4" d="M 94.5,62.5 C 99.5,62.5 104.5,62.5 109.5,62.5C 108.069,64.4013 107.069,66.568 106.5,69C 106.746,72.3494 106.746,75.8494 106.5,79.5C 102.167,79.5 97.8333,79.5 93.5,79.5C 93.5142,75.8158 93.1809,72.3158 92.5,69C 94.25,67.2458 94.9167,65.0792 94.5,62.5 Z"/></g>
<g><path style="opacity:0.93" fill="#7097f4" d="M 109.5,62.5 C 113.167,62.5 116.833,62.5 120.5,62.5C 118.59,63.684 118.257,65.184 119.5,67C 117.677,66.9734 116.01,67.8068 114.5,69.5C 112.52,70.8475 111.353,72.8475 111,75.5C 109.629,77.0414 108.129,78.3747 106.5,79.5C 106.746,75.8494 106.746,72.3494 106.5,69C 107.069,66.568 108.069,64.4013 109.5,62.5 Z"/></g>
<g><path style="opacity:0.962" fill="#709bf4" d="M 120.5,62.5 C 123.833,62.5 127.167,62.5 130.5,62.5C 128.052,63.4731 125.385,63.8064 122.5,63.5C 122.5,65.5 122.5,67.5 122.5,69.5C 119.833,69.5 117.167,69.5 114.5,69.5C 116.01,67.8068 117.677,66.9734 119.5,67C 118.257,65.184 118.59,63.684 120.5,62.5 Z"/></g>
<g><path style="opacity:0.985" fill="#6f9ff3" d="M 130.5,62.5 C 133.241,62.7073 135.574,63.7073 137.5,65.5C 136.289,67.6296 134.956,69.6296 133.5,71.5C 133.389,70.8826 133.056,70.3826 132.5,70C 129.183,69.5017 125.85,69.335 122.5,69.5C 122.5,67.5 122.5,65.5 122.5,63.5C 125.385,63.8064 128.052,63.4731 130.5,62.5 Z"/></g>
<g><path style="opacity:0.99" fill="#6fa5f3" d="M 137.5,65.5 C 138.558,66.6002 139.392,67.9336 140,69.5C 140.499,74.4889 140.666,79.4889 140.5,84.5C 143.152,84.4095 145.485,85.0762 147.5,86.5C 145.952,95.0197 144.952,103.686 144.5,112.5C 143.167,112.5 141.833,112.5 140.5,112.5C 141.099,119.391 140.265,126.058 138,132.5C 135.096,134.227 131.93,134.893 128.5,134.5C 129.728,132.99 129.728,131.49 128.5,130C 129.416,129.722 130.082,129.222 130.5,128.5C 131.496,128.586 132.329,128.252 133,127.5C 133.5,108.836 133.667,90.1696 133.5,71.5C 134.956,69.6296 136.289,67.6296 137.5,65.5 Z"/></g>
<g><path style="opacity:0.905" fill="#737ff5" d="M 71.5,80.5 C 69.5294,83.3648 68.8627,86.3648 69.5,89.5C 65.3423,87.7589 61.6757,88.4256 58.5,91.5C 57.7801,89.2658 57.4467,87.0992 57.5,85C 57.9054,84.0546 58.572,83.3879 59.5,83C 58.5842,82.7216 57.9175,82.2216 57.5,81.5C 61.916,79.2725 66.5827,78.9392 71.5,80.5 Z"/></g>
<g><path style="opacity:0.97" fill="#7097f4" d="M 115.5,79.5 C 116.278,80.1556 116.944,80.9889 117.5,82C 117.353,84.2604 117.019,86.427 116.5,88.5C 107.222,88.8929 104.889,93.0596 109.5,101C 111.345,102.128 113.345,102.628 115.5,102.5C 114.212,105.601 114.212,108.268 115.5,110.5C 110.94,111.35 106.94,110.016 103.5,106.5C 103.977,104.662 104.31,102.828 104.5,101C 103.833,100.667 103.167,100.333 102.5,100C 104.787,98.5728 105.12,96.7394 103.5,94.5C 105.355,90.9106 105.689,86.9106 104.5,82.5C 107.726,80.1229 111.393,79.1229 115.5,79.5 Z"/></g>
<g><path style="opacity:0.952" fill="#6db6f4" d="M 177.5,76.5 C 177.5,85.1667 177.5,93.8333 177.5,102.5C 176.373,106.683 175.373,111.017 174.5,115.5C 173.761,115.631 173.094,115.464 172.5,115C 173.239,113.235 173.239,111.235 172.5,109C 173.56,103.24 174.56,97.24 175.5,91C 174.744,87.129 174.411,83.4623 174.5,80C 175.814,79.015 176.814,77.8484 177.5,76.5 Z"/></g>
<g><path style="opacity:0.942" fill="#737af4" d="M 57.5,81.5 C 57.9175,82.2216 58.5842,82.7216 59.5,83C 58.572,83.3879 57.9054,84.0546 57.5,85C 57.4467,87.0992 57.7801,89.2658 58.5,91.5C 57.8826,91.3893 57.3826,91.056 57,90.5C 56.8002,94.7533 56.3002,98.92 55.5,103C 55.8333,104 56.1667,105 56.5,106C 55.9056,106.464 55.2389,106.631 54.5,106.5C 49.9436,102.169 48.4436,96.8358 50,90.5C 51.5877,86.6086 54.0877,83.6086 57.5,81.5 Z"/></g>
<g><path style="opacity:0.955" fill="#7286f4" d="M 71.5,80.5 C 79.2579,84.9092 82.0912,91.5759 80,100.5C 77.737,106.268 73.5704,109.601 67.5,110.5C 68.1032,108.321 68.7699,106.154 69.5,104C 68.5842,103.722 67.9175,103.222 67.5,102.5C 72.8577,98.8159 73.5244,94.4825 69.5,89.5C 68.8627,86.3648 69.5294,83.3648 71.5,80.5 Z"/></g>
<g><path style="opacity:0.947" fill="#6f9df4" d="M 115.5,79.5 C 124.169,80.9807 128.836,86.1474 129.5,95C 129.179,104.152 124.512,109.319 115.5,110.5C 114.212,108.268 114.212,105.601 115.5,102.5C 120.107,100.228 121.607,96.5617 120,91.5C 118.961,90.2899 117.794,89.2899 116.5,88.5C 117.019,86.427 117.353,84.2604 117.5,82C 116.944,80.9889 116.278,80.1556 115.5,79.5 Z"/></g>
<g><path style="opacity:0.959" fill="#7193f3" d="M 104.5,82.5 C 105.689,86.9106 105.355,90.9106 103.5,94.5C 105.12,96.7394 104.787,98.5728 102.5,100C 103.167,100.333 103.833,100.667 104.5,101C 104.31,102.828 103.977,104.662 103.5,106.5C 99.9672,103.763 98.3005,100.096 98.5,95.5C 98.2105,90.0059 100.21,85.6725 104.5,82.5 Z"/></g>
<g><path style="opacity:0.958" fill="#756ff5" d="M 38.5,84.5 C 38.3979,85.337 37.3979,86.0037 35.5,86.5C 36.1916,88.3351 35.8583,90.1684 34.5,92C 34.3174,94.8932 34.6507,97.8932 35.5,101C 33.1993,103.003 33.1993,104.837 35.5,106.5C 35.1543,107.696 34.6543,107.696 34,106.5C 33.7266,108.101 33.2266,109.601 32.5,111C 33.4158,111.278 34.0825,111.778 34.5,112.5C 32.0968,112.607 30.2635,111.607 29,109.5C 28.3333,102.5 28.3333,95.5 29,88.5C 31.5232,85.7124 34.6899,84.379 38.5,84.5 Z"/></g>
<g><path style="opacity:0.954" fill="#6ea9f4" d="M 147.5,86.5 C 148.458,86.9528 149.292,87.6195 150,88.5C 150.667,95.5 150.667,102.5 150,109.5C 148.736,111.607 146.903,112.607 144.5,112.5C 144.952,103.686 145.952,95.0197 147.5,86.5 Z"/></g>
<g><path style="opacity:0.959" fill="#737ff5" d="M 58.5,91.5 C 57.479,98.4776 60.479,102.144 67.5,102.5C 67.9175,103.222 68.5842,103.722 69.5,104C 68.7699,106.154 68.1032,108.321 67.5,110.5C 62.4937,111.496 58.1604,110.163 54.5,106.5C 55.2389,106.631 55.9056,106.464 56.5,106C 56.1667,105 55.8333,104 55.5,103C 56.3002,98.92 56.8002,94.7533 57,90.5C 57.3826,91.056 57.8826,91.3893 58.5,91.5 Z"/></g>
<g><path style="opacity:0.927" fill="#7287f5" d="M 79.5,109.5 C 78.477,112.393 78.477,115.226 79.5,118C 78.9558,118.717 78.2891,119.217 77.5,119.5C 79.0603,121.129 78.727,122.296 76.5,123C 77.3805,123.708 78.0472,124.542 78.5,125.5C 70.8762,125.028 68.0429,121.028 70,113.5C 72.2393,110.038 75.406,108.705 79.5,109.5 Z M 77.5,119.5 C 75.1481,118.457 74.9815,117.124 77,115.5C 77.49,116.793 77.6567,118.127 77.5,119.5 Z"/></g>
<g><path style="opacity:0.966" fill="#728cf4" d="M 79.5,109.5 C 83.1667,109.5 86.8333,109.5 90.5,109.5C 89.3421,110.573 89.3421,111.739 90.5,113C 90.2409,114.261 89.5742,115.261 88.5,116C 88.8068,117.682 89.1402,119.348 89.5,121C 89.0946,121.945 88.428,122.612 87.5,123C 88.3805,123.708 89.0472,124.542 89.5,125.5C 85.8333,125.5 82.1667,125.5 78.5,125.5C 78.0472,124.542 77.3805,123.708 76.5,123C 78.727,122.296 79.0603,121.129 77.5,119.5C 78.2891,119.217 78.9558,118.717 79.5,118C 78.477,115.226 78.477,112.393 79.5,109.5 Z M 83.5,115.5 C 84.5,115.5 85.5,115.5 86.5,115.5C 86.5,116.833 86.5,118.167 86.5,119.5C 85.5,119.5 84.5,119.5 83.5,119.5C 83.5,118.167 83.5,116.833 83.5,115.5 Z"/></g>
<g><path style="opacity:0.968" fill="#7192f4" d="M 90.5,109.5 C 94.8333,109.5 99.1667,109.5 103.5,109.5C 103.205,111.423 102.372,113.09 101,114.5C 100.22,116.387 100.387,118.054 101.5,119.5C 101.833,119.5 102.167,119.5 102.5,119.5C 101.737,120.268 100.737,120.768 99.5,121C 100.624,121.249 101.624,121.749 102.5,122.5C 101.873,123.417 101.539,124.417 101.5,125.5C 97.5,125.5 93.5,125.5 89.5,125.5C 89.0472,124.542 88.3805,123.708 87.5,123C 88.428,122.612 89.0946,121.945 89.5,121C 89.1402,119.348 88.8068,117.682 88.5,116C 89.5742,115.261 90.2409,114.261 90.5,113C 89.3421,111.739 89.3421,110.573 90.5,109.5 Z M 92.5,115.5 C 93.5,115.5 94.5,115.5 95.5,115.5C 95.5,116.833 95.5,118.167 95.5,119.5C 94.5,119.5 93.5,119.5 92.5,119.5C 92.5,118.167 92.5,116.833 92.5,115.5 Z"/></g>
<g><path style="opacity:0.947" fill="#7096f4" d="M 103.5,109.5 C 109.131,111.539 110.964,115.539 109,121.5C 107.285,124.397 104.785,125.731 101.5,125.5C 101.539,124.417 101.873,123.417 102.5,122.5C 101.624,121.749 100.624,121.249 99.5,121C 100.737,120.768 101.737,120.268 102.5,119.5C 103.935,118.015 103.768,116.682 102,115.5C 101.51,116.793 101.343,118.127 101.5,119.5C 100.387,118.054 100.22,116.387 101,114.5C 102.372,113.09 103.205,111.423 103.5,109.5 Z M 102.5,119.5 C 102.167,119.5 101.833,119.5 101.5,119.5C 101.343,118.127 101.51,116.793 102,115.5C 103.768,116.682 103.935,118.015 102.5,119.5 Z"/></g>
<g><path style="opacity:0.911" fill="#7478f4" d="M 45.5,112.5 C 45.3341,117.511 45.5007,122.511 46,127.5C 48.0408,128.423 50.2075,128.756 52.5,128.5C 53.3414,130.379 53.6747,132.379 53.5,134.5C 49.9581,134.813 46.6248,134.479 43.5,133.5C 43.1857,129.517 42.8523,125.85 42.5,122.5C 43.2435,119.557 43.7435,116.557 44,113.5C 44.3826,112.944 44.8826,112.611 45.5,112.5 Z"/></g>
<g><path style="opacity:0.915" fill="#7666f5" d="M 10.5,112.5 C 12.5571,118.281 14.8904,123.947 17.5,129.5C 16.2721,131.01 16.2721,132.51 17.5,134C 16.0267,134.71 15.3601,135.876 15.5,137.5C 11.7374,132.312 8.73744,126.645 6.5,120.5C 7.73817,117.739 9.07151,115.072 10.5,112.5 Z"/></g>
<g><path style="opacity:0.949" fill="#7380f5" d="M 52.5,128.5 C 56.5,128.5 60.5,128.5 64.5,128.5C 67.0708,129.762 67.0708,131.095 64.5,132.5C 65.1667,132.833 65.8333,133.167 66.5,133.5C 66.1876,137.024 65.5209,140.691 64.5,144.5C 62.8255,141.493 62.1588,138.16 62.5,134.5C 59.5,134.5 56.5,134.5 53.5,134.5C 53.6747,132.379 53.3414,130.379 52.5,128.5 Z"/></g>
<g><path style="opacity:0.972" fill="#7286f5" d="M 64.5,128.5 C 68.8333,128.5 73.1667,128.5 77.5,128.5C 77.2964,131.545 77.2964,134.379 77.5,137C 76.8333,138.667 76.1667,140.333 75.5,142C 76.6341,143.016 76.3008,143.683 74.5,144C 75.4158,144.278 76.0825,144.778 76.5,145.5C 72.2984,145.817 68.2984,145.483 64.5,144.5C 65.5209,140.691 66.1876,137.024 66.5,133.5C 65.8333,133.167 65.1667,132.833 64.5,132.5C 67.0708,131.095 67.0708,129.762 64.5,128.5 Z"/></g>
<g><path style="opacity:0.977" fill="#728cf4" d="M 77.5,128.5 C 81.1667,128.5 84.8333,128.5 88.5,128.5C 89.08,133.68 88.4133,138.847 86.5,144C 87.056,144.383 87.3893,144.883 87.5,145.5C 83.8333,145.5 80.1667,145.5 76.5,145.5C 76.0825,144.778 75.4158,144.278 74.5,144C 76.3008,143.683 76.6341,143.016 75.5,142C 76.1667,140.333 76.8333,138.667 77.5,137C 77.2964,134.379 77.2964,131.545 77.5,128.5 Z"/></g>
<g><path style="opacity:0.984" fill="#7192f4" d="M 88.5,128.5 C 92.8333,128.5 97.1667,128.5 101.5,128.5C 100.645,129.531 99.9783,130.697 99.5,132C 100.649,133.73 100.649,135.396 99.5,137C 100.167,137.333 100.833,137.667 101.5,138C 100.313,139.019 99.3128,140.186 98.5,141.5C 99.6302,142.622 100.297,143.956 100.5,145.5C 96.1667,145.5 91.8333,145.5 87.5,145.5C 87.3893,144.883 87.056,144.383 86.5,144C 88.4133,138.847 89.08,133.68 88.5,128.5 Z"/></g>
<g><path style="opacity:0.992" fill="#7098f4" d="M 101.5,128.5 C 104.833,128.5 108.167,128.5 111.5,128.5C 111.953,129.458 112.619,130.292 113.5,131C 112.833,132 112.167,133 111.5,134C 112.183,137.681 112.183,141.515 111.5,145.5C 107.833,145.5 104.167,145.5 100.5,145.5C 100.297,143.956 99.6302,142.622 98.5,141.5C 99.3128,140.186 100.313,139.019 101.5,138C 100.833,137.667 100.167,137.333 99.5,137C 100.649,135.396 100.649,133.73 99.5,132C 99.9783,130.697 100.645,129.531 101.5,128.5 Z"/></g>
<g><path style="opacity:0.944" fill="#709bf5" d="M 111.5,128.5 C 113.5,128.5 115.5,128.5 117.5,128.5C 117.483,130.565 117.15,132.565 116.5,134.5C 116.699,137.941 116.199,141.274 115,144.5C 113.989,145.337 112.822,145.67 111.5,145.5C 112.183,141.515 112.183,137.681 111.5,134C 112.167,133 112.833,132 113.5,131C 112.619,130.292 111.953,129.458 111.5,128.5 Z"/></g>
<g><path style="opacity:0.932" fill="#6f9ff4" d="M 117.5,128.5 C 121.833,128.5 126.167,128.5 130.5,128.5C 130.082,129.222 129.416,129.722 128.5,130C 129.728,131.49 129.728,132.99 128.5,134.5C 124.5,134.5 120.5,134.5 116.5,134.5C 117.15,132.565 117.483,130.565 117.5,128.5 Z"/></g>
<g><path style="opacity:0.941" fill="#7569f4" d="M 17.5,129.5 C 20.6543,132.488 22.1543,136.155 22,140.5C 18.5516,142.264 16.385,141.264 15.5,137.5C 15.3601,135.876 16.0267,134.71 17.5,134C 16.2721,132.51 16.2721,131.01 17.5,129.5 Z"/></g>
<g><path style="opacity:0.957" fill="#6eabf4" d="M 153.5,141.5 C 154.234,142.878 154.901,144.378 155.5,146C 154.833,146.333 154.167,146.667 153.5,147C 154.154,150.009 154.154,152.842 153.5,155.5C 150.887,156.435 148.221,156.602 145.5,156C 144.196,155.196 143.529,154.029 143.5,152.5C 144.168,146.147 145.002,139.814 146,133.5C 147.667,132.167 149.333,132.167 151,133.5C 151.333,136.5 151.667,139.5 152,142.5C 152.383,141.944 152.883,141.611 153.5,141.5 Z"/></g>
<g><path style="opacity:0.925" fill="#756ff5" d="M 30.5,144.5 C 29.8874,147.137 29.8874,149.97 30.5,153C 27.9296,154.349 27.9296,155.516 30.5,156.5C 30.6653,160.182 30.4986,163.848 30,167.5C 28.0624,168.86 26.3957,168.527 25,166.5C 23.746,159.535 23.4127,152.535 24,145.5C 26.0408,144.577 28.2075,144.244 30.5,144.5 Z"/></g>
<g><path style="opacity:0.928" fill="#7473f5" d="M 30.5,144.5 C 34.1788,144.724 37.8455,145.058 41.5,145.5C 42.1081,147.684 41.4414,149.684 39.5,151.5C 38.1266,151.343 36.7932,151.51 35.5,152C 37.0931,152.949 38.4264,154.115 39.5,155.5C 40.5463,157.785 40.5463,160.118 39.5,162.5C 36.3566,160.758 33.3566,158.758 30.5,156.5C 27.9296,155.516 27.9296,154.349 30.5,153C 29.8874,149.97 29.8874,147.137 30.5,144.5 Z"/></g>
<g><path style="opacity:0.892" fill="#7477f5" d="M 41.5,145.5 C 44.5497,144.923 46.5497,146.09 47.5,149C 45.598,152.357 42.9313,153.19 39.5,151.5C 41.4414,149.684 42.1081,147.684 41.5,145.5 Z"/></g>
<g><path style="opacity:0.918" fill="#7478f4" d="M 39.5,155.5 C 42.8708,157.846 46.2041,160.179 49.5,162.5C 50.4845,164.598 50.1511,166.598 48.5,168.5C 44.9464,167.231 41.9464,165.231 39.5,162.5C 40.5463,160.118 40.5463,157.785 39.5,155.5 Z"/></g>
<g><path style="opacity:0.922" fill="#6ea5f4" d="M 125.5,170.5 C 126.015,168.106 126.681,165.772 127.5,163.5C 130.823,161.03 134.323,158.696 138,156.5C 139.757,157.119 140.924,158.286 141.5,160C 137.353,165.244 132.02,168.744 125.5,170.5 Z"/></g>
<g><path style="opacity:0.899" fill="#737ff5" d="M 49.5,162.5 C 53.7225,164.444 58.0558,166.111 62.5,167.5C 63.5463,169.785 63.5463,172.118 62.5,174.5C 57.5664,173.031 52.8997,171.031 48.5,168.5C 50.1511,166.598 50.4845,164.598 49.5,162.5 Z"/></g>
<g><path style="opacity:0.931" fill="#6f9ff3" d="M 127.5,163.5 C 126.681,165.772 126.015,168.106 125.5,170.5C 122.159,172.732 118.492,174.398 114.5,175.5C 114.117,173.592 113.117,172.092 111.5,171C 112.756,170.583 113.423,169.75 113.5,168.5C 118.167,166.833 122.833,165.167 127.5,163.5 Z"/></g>
<g><path style="opacity:0.91" fill="#7286f4" d="M 62.5,167.5 C 66.5841,168.848 70.5841,170.181 74.5,171.5C 74.0276,173.531 73.0276,175.198 71.5,176.5C 68.3704,176.3 65.3704,175.634 62.5,174.5C 63.5463,172.118 63.5463,169.785 62.5,167.5 Z"/></g>
<g><path style="opacity:0.919" fill="#709bf4" d="M 113.5,168.5 C 113.423,169.75 112.756,170.583 111.5,171C 113.117,172.092 114.117,173.592 114.5,175.5C 112.565,176.15 110.565,176.483 108.5,176.5C 108.414,175.504 108.748,174.671 109.5,174C 107.937,173.241 106.937,172.074 106.5,170.5C 108.894,169.985 111.228,169.319 113.5,168.5 Z"/></g>
<g><path style="opacity:0.94" fill="#728cf4" d="M 74.5,171.5 C 77.8806,171.46 81.2139,171.793 84.5,172.5C 84.5,174.5 84.5,176.5 84.5,178.5C 82.1667,178.5 79.8333,178.5 77.5,178.5C 75.5,177.833 73.5,177.167 71.5,176.5C 73.0276,175.198 74.0276,173.531 74.5,171.5 Z"/></g>
<g><path style="opacity:0.975" fill="#7097f4" d="M 106.5,170.5 C 106.937,172.074 107.937,173.241 109.5,174C 108.748,174.671 108.414,175.504 108.5,176.5C 106.374,177.048 104.374,177.715 102.5,178.5C 100.167,178.5 97.8333,178.5 95.5,178.5C 97.0808,176.858 97.7475,174.858 97.5,172.5C 100.345,171.656 103.345,170.99 106.5,170.5 Z"/></g>
<g><path style="opacity:0.943" fill="#7192f4" d="M 84.5,172.5 C 88.8333,172.5 93.1667,172.5 97.5,172.5C 97.7475,174.858 97.0808,176.858 95.5,178.5C 91.8333,178.5 88.1667,178.5 84.5,178.5C 84.5,176.5 84.5,174.5 84.5,172.5 Z"/></g>
</svg>
