<?xml version="1.0" encoding="UTF-8"?>
<!DOCTYPE svg PUBLIC "-//W3C//DTD SVG 1.1//EN" "http://www.w3.org/Graphics/SVG/1.1/DTD/svg11.dtd">
<svg xmlns="http://www.w3.org/2000/svg" version="1.1" width="171px" height="171px" style="shape-rendering:geometricPrecision; text-rendering:geometricPrecision; image-rendering:optimizeQuality; fill-rule:evenodd; clip-rule:evenodd" xmlns:xlink="http://www.w3.org/1999/xlink">
<g><path style="opacity:0.84" fill="#7765f5" d="M 43.5,-0.5 C 44.1667,-0.5 44.8333,-0.5 45.5,-0.5C 45.5,1.83333 45.5,4.16667 45.5,6.5C 44.8826,6.38929 44.3826,6.05596 44,5.5C 43.5045,3.5273 43.3379,1.5273 43.5,-0.5 Z"/></g>
<g><path style="opacity:0.872" fill="#6daff7" d="M 114.5,-0.5 C 115.167,-0.5 115.833,-0.5 116.5,-0.5C 116.662,1.5273 116.495,3.5273 116,5.5C 115.617,6.05596 115.117,6.38929 114.5,6.5C 114.5,4.16667 114.5,1.83333 114.5,-0.5 Z"/></g>
<g><path style="opacity:0.843" fill="#756bf5" d="M 164.5,-0.5 C 165.167,-0.5 165.833,-0.5 166.5,-0.5C 166.5,1.83333 166.5,4.16667 166.5,6.5C 164.656,4.72113 163.99,2.38779 164.5,-0.5 Z"/></g>
<g><path style="opacity:0.999" fill="#766bf4" d="M 65.5,-0.5 C 66.5,-0.5 67.5,-0.5 68.5,-0.5C 68.5,1.83333 68.5,4.16667 68.5,6.5C 67.5041,6.58577 66.6708,6.25244 66,5.5C 65.5045,3.5273 65.3379,1.5273 65.5,-0.5 Z"/></g>
<g><path style="opacity:0.998" fill="#6eaef4" d="M 70.5,-0.5 C 71.1667,-0.5 71.8333,-0.5 72.5,-0.5C 73.0102,2.38779 72.3435,4.72113 70.5,6.5C 70.5,4.16667 70.5,1.83333 70.5,-0.5 Z"/></g>
<g><path style="opacity:0.999" fill="#6daef4" d="M 81.5,-0.5 C 82.1667,-0.5 82.8333,-0.5 83.5,-0.5C 84.0102,2.38779 83.3435,4.72113 81.5,6.5C 81.5,4.16667 81.5,1.83333 81.5,-0.5 Z"/></g>
<g><path style="opacity:0.999" fill="#6eaaf4" d="M 91.5,-0.5 C 92.5,-0.5 93.5,-0.5 94.5,-0.5C 94.5,1.83333 94.5,4.16667 94.5,6.5C 93.5,6.5 92.5,6.5 91.5,6.5C 91.5,4.16667 91.5,1.83333 91.5,-0.5 Z"/></g>
<g><path style="opacity:0.999" fill="#6daff3" d="M 103.5,-0.5 C 104.167,-0.5 104.833,-0.5 105.5,-0.5C 106.01,2.38779 105.344,4.72113 103.5,6.5C 103.5,4.16667 103.5,1.83333 103.5,-0.5 Z"/></g>
<g><path style="opacity:1" fill="#6daff6" d="M 125.5,-0.5 C 126.167,-0.5 126.833,-0.5 127.5,-0.5C 127.662,1.5273 127.495,3.5273 127,5.5C 126.617,6.05596 126.117,6.38929 125.5,6.5C 125.5,4.16667 125.5,1.83333 125.5,-0.5 Z"/></g>
<g><path style="opacity:0.998" fill="#746ff4" d="M 131.5,-0.5 C 132.5,-0.5 133.5,-0.5 134.5,-0.5C 134.5,1.83333 134.5,4.16667 134.5,6.5C 133.5,6.5 132.5,6.5 131.5,6.5C 131.5,4.16667 131.5,1.83333 131.5,-0.5 Z"/></g>
<g><path style="opacity:0.999" fill="#6db1f7" d="M 136.5,-0.5 C 137.167,-0.5 137.833,-0.5 138.5,-0.5C 138.662,1.5273 138.495,3.5273 138,5.5C 137.617,6.05596 137.117,6.38929 136.5,6.5C 136.5,4.16667 136.5,1.83333 136.5,-0.5 Z"/></g>
<g><path style="opacity:0.999" fill="#7569f4" d="M 142.5,-0.5 C 143.167,-0.5 143.833,-0.5 144.5,-0.5C 144.5,1.83333 144.5,4.16667 144.5,6.5C 142.656,4.72113 141.99,2.38779 142.5,-0.5 Z"/></g>
<g><path style="opacity:0.997" fill="#6dadf6" d="M 146.5,-0.5 C 147.5,-0.5 148.5,-0.5 149.5,-0.5C 149.662,1.5273 149.495,3.5273 149,5.5C 148.329,6.25244 147.496,6.58577 146.5,6.5C 146.5,4.16667 146.5,1.83333 146.5,-0.5 Z"/></g>
<g><path style="opacity:1" fill="#766af5" d="M 153.5,-0.5 C 154.167,-0.5 154.833,-0.5 155.5,-0.5C 155.5,1.83333 155.5,4.16667 155.5,6.5C 153.656,4.72113 152.99,2.38779 153.5,-0.5 Z"/></g>
<g><path style="opacity:1" fill="#766af5" d="M 21.5,-0.5 C 22.5,-0.5 23.5,-0.5 24.5,-0.5C 24.5,1.83333 24.5,4.16667 24.5,6.5C 23.5041,6.58577 22.6708,6.25244 22,5.5C 21.5045,3.5273 21.3379,1.5273 21.5,-0.5 Z"/></g>
<g><path style="opacity:1" fill="#7190f4" d="M 24.5,-0.5 C 25.1667,-0.5 25.8333,-0.5 26.5,-0.5C 26.5,1.83333 26.5,4.16667 26.5,6.5C 25.8333,6.5 25.1667,6.5 24.5,6.5C 24.5,4.16667 24.5,1.83333 24.5,-0.5 Z"/></g>
<g><path style="opacity:0.999" fill="#7386f5" d="M 34.5,-0.5 C 35.1667,-0.5 35.8333,-0.5 36.5,-0.5C 36.5,1.83333 36.5,4.16667 36.5,6.5C 35.8333,6.5 35.1667,6.5 34.5,6.5C 34.5,4.16667 34.5,1.83333 34.5,-0.5 Z"/></g>
<g><path style="opacity:0.999" fill="#728bf4" d="M 45.5,-0.5 C 46.5,-0.5 47.5,-0.5 48.5,-0.5C 48.5,1.83333 48.5,4.16667 48.5,6.5C 47.5,6.5 46.5,6.5 45.5,6.5C 45.5,4.16667 45.5,1.83333 45.5,-0.5 Z"/></g>
<g><path style="opacity:0.999" fill="#7286f4" d="M 56.5,-0.5 C 57.1667,-0.5 57.8333,-0.5 58.5,-0.5C 58.5,1.83333 58.5,4.16667 58.5,6.5C 57.8333,6.5 57.1667,6.5 56.5,6.5C 56.5,4.16667 56.5,1.83333 56.5,-0.5 Z"/></g>
<g><path style="opacity:1" fill="#6ea9f4" d="M 58.5,-0.5 C 59.5,-0.5 60.5,-0.5 61.5,-0.5C 61.5,1.83333 61.5,4.16667 61.5,6.5C 60.5,6.5 59.5,6.5 58.5,6.5C 58.5,4.16667 58.5,1.83333 58.5,-0.5 Z"/></g>
<g><path style="opacity:1" fill="#7196f4" d="M 68.5,-0.5 C 69.1667,-0.5 69.8333,-0.5 70.5,-0.5C 70.5,1.83333 70.5,4.16667 70.5,6.5C 69.8333,6.5 69.1667,6.5 68.5,6.5C 68.5,4.16667 68.5,1.83333 68.5,-0.5 Z"/></g>
<g><path style="opacity:1" fill="#756ef4" d="M 109.5,-0.5 C 110.5,-0.5 111.5,-0.5 112.5,-0.5C 112.5,1.83333 112.5,4.16667 112.5,6.5C 111.5,6.5 110.5,6.5 109.5,6.5C 109.5,4.16667 109.5,1.83333 109.5,-0.5 Z"/></g>
<g><path style="opacity:0.823" fill="#7099f4" d="M 112.5,-0.5 C 113.167,-0.5 113.833,-0.5 114.5,-0.5C 114.5,1.83333 114.5,4.16667 114.5,6.5C 113.833,6.5 113.167,6.5 112.5,6.5C 112.5,4.16667 112.5,1.83333 112.5,-0.5 Z"/></g>
<g><path style="opacity:0.997" fill="#728bf4" d="M 144.5,-0.5 C 145.167,-0.5 145.833,-0.5 146.5,-0.5C 146.5,1.83333 146.5,4.16667 146.5,6.5C 145.833,6.5 145.167,6.5 144.5,6.5C 144.5,4.16667 144.5,1.83333 144.5,-0.5 Z"/></g>
<g><path style="opacity:0.998" fill="#728cf4" d="M 155.5,-0.5 C 156.167,-0.5 156.833,-0.5 157.5,-0.5C 157.5,1.83333 157.5,4.16667 157.5,6.5C 156.833,6.5 156.167,6.5 155.5,6.5C 155.5,4.16667 155.5,1.83333 155.5,-0.5 Z"/></g>
<g><path style="opacity:1" fill="#728cf4" d="M 166.5,-0.5 C 167.167,-0.5 167.833,-0.5 168.5,-0.5C 168.5,1.83333 168.5,4.16667 168.5,6.5C 167.833,6.5 167.167,6.5 166.5,6.5C 166.5,4.16667 166.5,1.83333 166.5,-0.5 Z"/></g>
<g><path style="opacity:0.999" fill="#7473f5" d="M 0.5,-0.5 C 1.16667,-0.5 1.83333,-0.5 2.5,-0.5C 2.5,1.83333 2.5,4.16667 2.5,6.5C 0.656493,4.72113 -0.0101734,2.38779 0.5,-0.5 Z"/></g>
<g><path style="opacity:0.997" fill="#718ef4" d="M 2.5,-0.5 C 3.16667,-0.5 3.83333,-0.5 4.5,-0.5C 4.5,1.83333 4.5,4.16667 4.5,6.5C 3.83333,6.5 3.16667,6.5 2.5,6.5C 2.5,4.16667 2.5,1.83333 2.5,-0.5 Z"/></g>
<g><path style="opacity:0.999" fill="#6eacf4" d="M 4.5,-0.5 C 5.16667,-0.5 5.83333,-0.5 6.5,-0.5C 7.01017,2.38779 6.34351,4.72113 4.5,6.5C 4.5,4.16667 4.5,1.83333 4.5,-0.5 Z"/></g>
<g><path style="opacity:0.997" fill="#718ff4" d="M 13.5,-0.5 C 14.1667,-0.5 14.8333,-0.5 15.5,-0.5C 15.5,1.83333 15.5,4.16667 15.5,6.5C 14.8333,6.5 14.1667,6.5 13.5,6.5C 13.5,4.16667 13.5,1.83333 13.5,-0.5 Z"/></g>
<g><path style="opacity:1" fill="#6eacf4" d="M 15.5,-0.5 C 16.1667,-0.5 16.8333,-0.5 17.5,-0.5C 18.0102,2.38779 17.3435,4.72113 15.5,6.5C 15.5,4.16667 15.5,1.83333 15.5,-0.5 Z"/></g>
<g><path style="opacity:1" fill="#7665f5" d="M 32.5,-0.5 C 33.1667,-0.5 33.8333,-0.5 34.5,-0.5C 34.5,1.83333 34.5,4.16667 34.5,6.5C 33.8826,6.38929 33.3826,6.05596 33,5.5C 32.5045,3.5273 32.3379,1.5273 32.5,-0.5 Z"/></g>
<g><path style="opacity:0.999" fill="#6ea8f4" d="M 36.5,-0.5 C 37.5,-0.5 38.5,-0.5 39.5,-0.5C 39.5,1.83333 39.5,4.16667 39.5,6.5C 38.5,6.5 37.5,6.5 36.5,6.5C 36.5,4.16667 36.5,1.83333 36.5,-0.5 Z"/></g>
<g><path style="opacity:1" fill="#756df5" d="M 76.5,-0.5 C 77.5,-0.5 78.5,-0.5 79.5,-0.5C 79.5,1.83333 79.5,4.16667 79.5,6.5C 78.5041,6.58577 77.6708,6.25244 77,5.5C 76.5045,3.5273 76.3379,1.5273 76.5,-0.5 Z"/></g>
<g><path style="opacity:0.78" fill="#7097f4" d="M 79.5,-0.5 C 80.1667,-0.5 80.8333,-0.5 81.5,-0.5C 81.5,1.83333 81.5,4.16667 81.5,6.5C 80.8333,6.5 80.1667,6.5 79.5,6.5C 79.5,4.16667 79.5,1.83333 79.5,-0.5 Z"/></g>
<g><path style="opacity:1" fill="#7668f4" d="M 87.5,-0.5 C 88.1667,-0.5 88.8333,-0.5 89.5,-0.5C 89.5,1.83333 89.5,4.16667 89.5,6.5C 88.8826,6.38929 88.3826,6.05596 88,5.5C 87.5045,3.5273 87.3379,1.5273 87.5,-0.5 Z"/></g>
<g><path style="opacity:0.999" fill="#7382f4" d="M 89.5,-0.5 C 90.1667,-0.5 90.8333,-0.5 91.5,-0.5C 91.5,1.83333 91.5,4.16667 91.5,6.5C 90.8333,6.5 90.1667,6.5 89.5,6.5C 89.5,4.16667 89.5,1.83333 89.5,-0.5 Z"/></g>
<g><path style="opacity:0.999" fill="#756ef5" d="M 98.5,-0.5 C 99.5,-0.5 100.5,-0.5 101.5,-0.5C 101.5,1.83333 101.5,4.16667 101.5,6.5C 100.504,6.58577 99.6708,6.25244 99,5.5C 98.5045,3.5273 98.3379,1.5273 98.5,-0.5 Z"/></g>
<g><path style="opacity:0.781" fill="#7198f4" d="M 101.5,-0.5 C 102.167,-0.5 102.833,-0.5 103.5,-0.5C 103.5,1.83333 103.5,4.16667 103.5,6.5C 102.833,6.5 102.167,6.5 101.5,6.5C 101.5,4.16667 101.5,1.83333 101.5,-0.5 Z"/></g>
<g><path style="opacity:0.998" fill="#756ef5" d="M 120.5,-0.5 C 121.5,-0.5 122.5,-0.5 123.5,-0.5C 123.5,1.83333 123.5,4.16667 123.5,6.5C 122.5,6.5 121.5,6.5 120.5,6.5C 120.5,4.16667 120.5,1.83333 120.5,-0.5 Z"/></g>
<g><path style="opacity:0.997" fill="#7195f4" d="M 123.5,-0.5 C 124.167,-0.5 124.833,-0.5 125.5,-0.5C 125.5,1.83333 125.5,4.16667 125.5,6.5C 124.833,6.5 124.167,6.5 123.5,6.5C 123.5,4.16667 123.5,1.83333 123.5,-0.5 Z"/></g>
<g><path style="opacity:1" fill="#7195f4" d="M 134.5,-0.5 C 135.167,-0.5 135.833,-0.5 136.5,-0.5C 136.5,1.83333 136.5,4.16667 136.5,6.5C 135.833,6.5 135.167,6.5 134.5,6.5C 134.5,4.16667 134.5,1.83333 134.5,-0.5 Z"/></g>
<g><path style="opacity:0.999" fill="#6eaaf4" d="M 157.5,-0.5 C 158.167,-0.5 158.833,-0.5 159.5,-0.5C 160.01,2.38779 159.344,4.72113 157.5,6.5C 157.5,4.16667 157.5,1.83333 157.5,-0.5 Z"/></g>
<g><path style="opacity:1" fill="#6eaaf4" d="M 168.5,-0.5 C 169.167,-0.5 169.833,-0.5 170.5,-0.5C 170.5,1.83333 170.5,4.16667 170.5,6.5C 169.833,6.5 169.167,6.5 168.5,6.5C 168.5,4.16667 168.5,1.83333 168.5,-0.5 Z"/></g>
<g><path style="opacity:1" fill="#766df5" d="M 11.5,-0.5 C 12.1667,-0.5 12.8333,-0.5 13.5,-0.5C 13.5,1.83333 13.5,4.16667 13.5,6.5C 11.6565,4.72113 10.9898,2.38779 11.5,-0.5 Z"/></g>
<g><path style="opacity:0.373" fill="#6caff3" d="M 26.5,-0.5 C 27.1667,-0.5 27.8333,-0.5 28.5,-0.5C 29.0102,2.38779 28.3435,4.72113 26.5,6.5C 26.5,4.16667 26.5,1.83333 26.5,-0.5 Z"/></g>
<g><path style="opacity:0.373" fill="#6cb0f2" d="M 48.5,-0.5 C 49.1667,-0.5 49.8333,-0.5 50.5,-0.5C 51.0102,2.38779 50.3435,4.72113 48.5,6.5C 48.5,4.16667 48.5,1.83333 48.5,-0.5 Z"/></g>
<g><path style="opacity:0.998" fill="#7666f5" d="M 54.5,-0.5 C 55.1667,-0.5 55.8333,-0.5 56.5,-0.5C 56.5,1.83333 56.5,4.16667 56.5,6.5C 55.8826,6.38929 55.3826,6.05596 55,5.5C 54.5045,3.5273 54.3379,1.5273 54.5,-0.5 Z"/></g>
<g><path style="opacity:0.429" fill="#6eaef2" d="M 4.5,10.5 C 5.72507,11.1522 6.39174,12.3189 6.5,14C 6.39174,15.6811 5.72507,16.8478 4.5,17.5C 4.5,15.1667 4.5,12.8333 4.5,10.5 Z"/></g>
<g><path style="opacity:0.999" fill="#756af5" d="M 166.5,10.5 C 166.5,12.8333 166.5,15.1667 166.5,17.5C 165.275,16.8478 164.608,15.6811 164.5,14C 164.608,12.3189 165.275,11.1522 166.5,10.5 Z"/></g>
<g><path style="opacity:0.997" fill="#7472f5" d="M 2.5,10.5 C 2.5,12.8333 2.5,15.1667 2.5,17.5C 1.27493,16.8478 0.608263,15.6811 0.5,14C 0.608263,12.3189 1.27493,11.1522 2.5,10.5 Z"/></g>
<g><path style="opacity:0.998" fill="#728cf4" d="M 166.5,10.5 C 167.167,10.5 167.833,10.5 168.5,10.5C 168.5,12.8333 168.5,15.1667 168.5,17.5C 167.833,17.5 167.167,17.5 166.5,17.5C 166.5,15.1667 166.5,12.8333 166.5,10.5 Z"/></g>
<g><path style="opacity:0.997" fill="#718ef4" d="M 2.5,10.5 C 3.16667,10.5 3.83333,10.5 4.5,10.5C 4.5,12.8333 4.5,15.1667 4.5,17.5C 3.83333,17.5 3.16667,17.5 2.5,17.5C 2.5,15.1667 2.5,12.8333 2.5,10.5 Z"/></g>
<g><path style="opacity:0.781" fill="#6eaaf4" d="M 168.5,10.5 C 169.167,10.5 169.833,10.5 170.5,10.5C 170.5,12.8333 170.5,15.1667 170.5,17.5C 169.833,17.5 169.167,17.5 168.5,17.5C 168.5,15.1667 168.5,12.8333 168.5,10.5 Z"/></g>
<g><path style="opacity:0.906" fill="#6f9ef4" d="M 134.5,19.5 C 136.5,19.5 138.5,19.5 140.5,19.5C 138.849,21.4021 138.516,23.4021 139.5,25.5C 137.236,26.2186 134.903,26.552 132.5,26.5C 133.167,24.1667 133.833,21.8333 134.5,19.5 Z"/></g>
<g><path style="opacity:0.954" fill="#6ea5f4" d="M 140.5,19.5 C 141.5,19.5 142.5,19.5 143.5,19.5C 143.065,21.7033 143.065,23.7033 143.5,25.5C 142.167,25.5 140.833,25.5 139.5,25.5C 138.516,23.4021 138.849,21.4021 140.5,19.5 Z"/></g>
<g><path style="opacity:0.95" fill="#6eabf4" d="M 148.5,18.5 C 148.223,22.8472 147.556,27.3472 146.5,32C 146.957,32.414 147.291,32.914 147.5,33.5C 145.984,37.1757 145.65,40.5091 146.5,43.5C 145.77,46.1092 145.27,48.7759 145,51.5C 144.617,52.056 144.117,52.3893 143.5,52.5C 142.167,51.8333 141.167,50.8333 140.5,49.5C 140.878,47.3955 141.545,45.0621 142.5,42.5C 144.215,37.5498 145.215,32.2164 145.5,26.5C 145.043,25.7025 144.376,25.3691 143.5,25.5C 143.065,23.7033 143.065,21.7033 143.5,19.5C 145.216,19.3713 146.883,19.038 148.5,18.5 Z"/></g>
<g><path style="opacity:0.954" fill="#6db1f4" d="M 148.5,18.5 C 149.15,18.8039 149.817,19.1373 150.5,19.5C 151.335,29.4917 151.168,39.4917 150,49.5C 149.555,54.6968 147.388,55.6968 143.5,52.5C 144.117,52.3893 144.617,52.056 145,51.5C 145.27,48.7759 145.77,46.1092 146.5,43.5C 145.65,40.5091 145.984,37.1757 147.5,33.5C 147.291,32.914 146.957,32.414 146.5,32C 147.556,27.3472 148.223,22.8472 148.5,18.5 Z"/></g>
<g><path style="opacity:0.934" fill="#7285f5" d="M 122.5,20.5 C 121.775,23.6247 121.441,26.958 121.5,30.5C 114.588,25.8758 114.922,22.5424 122.5,20.5 Z"/></g>
<g><path style="opacity:0.842" fill="#756bf5" d="M 166.5,21.5 C 166.5,23.8333 166.5,26.1667 166.5,28.5C 165.275,27.8478 164.608,26.6811 164.5,25C 164.608,23.3189 165.275,22.1522 166.5,21.5 Z"/></g>
<g><path style="opacity:0.998" fill="#728cf4" d="M 166.5,21.5 C 167.167,21.5 167.833,21.5 168.5,21.5C 168.5,23.8333 168.5,26.1667 168.5,28.5C 167.833,28.5 167.167,28.5 166.5,28.5C 166.5,26.1667 166.5,23.8333 166.5,21.5 Z"/></g>
<g><path style="opacity:0.999" fill="#756df5" d="M 2.5,21.5 C 2.5,23.8333 2.5,26.1667 2.5,28.5C 1.27493,27.8478 0.608263,26.6811 0.5,25C 0.608263,23.3189 1.27493,22.1522 2.5,21.5 Z"/></g>
<g><path style="opacity:0.996" fill="#7194f4" d="M 2.5,21.5 C 3.16667,21.5 3.83333,21.5 4.5,21.5C 4.5,23.8333 4.5,26.1667 4.5,28.5C 3.83333,28.5 3.16667,28.5 2.5,28.5C 2.5,26.1667 2.5,23.8333 2.5,21.5 Z"/></g>
<g><path style="opacity:0.997" fill="#6daaf4" d="M 168.5,21.5 C 169.167,21.5 169.833,21.5 170.5,21.5C 170.5,23.8333 170.5,26.1667 170.5,28.5C 169.833,28.5 169.167,28.5 168.5,28.5C 168.5,26.1667 168.5,23.8333 168.5,21.5 Z"/></g>
<g><path style="opacity:1" fill="#6eacf5" d="M 4.5,21.5 C 5.72507,22.1522 6.39174,23.3189 6.5,25C 6.39174,26.6811 5.72507,27.8478 4.5,28.5C 4.5,26.1667 4.5,23.8333 4.5,21.5 Z"/></g>
<g><path style="opacity:0.949" fill="#7193f4" d="M 134.5,19.5 C 133.833,21.8333 133.167,24.1667 132.5,26.5C 126.401,25.8131 125.901,27.1465 131,30.5C 132.187,32.0444 132.52,33.7111 132,35.5C 129.269,37.7447 126.436,39.7447 123.5,41.5C 124.895,34.4013 125.895,27.4013 126.5,20.5C 129.206,20.4249 131.873,20.0916 134.5,19.5 Z"/></g>
<g><path style="opacity:0.998" fill="#728bf4" d="M 166.5,32.5 C 167.167,32.5 167.833,32.5 168.5,32.5C 168.5,34.5 168.5,36.5 168.5,38.5C 167.833,38.5 167.167,38.5 166.5,38.5C 166.5,36.5 166.5,34.5 166.5,32.5 Z"/></g>
<g><path style="opacity:0.939" fill="#728cf4" d="M 122.5,20.5 C 123.833,20.5 125.167,20.5 126.5,20.5C 125.895,27.4013 124.895,34.4013 123.5,41.5C 123.167,42.5 122.5,43.1667 121.5,43.5C 120.343,40.9741 120.343,38.3074 121.5,35.5C 123.957,33.9991 123.957,32.3324 121.5,30.5C 121.441,26.958 121.775,23.6247 122.5,20.5 Z"/></g>
<g><path style="opacity:1" fill="#756df4" d="M 2.5,32.5 C 2.5,34.5 2.5,36.5 2.5,38.5C 1.30652,38.0296 0.639851,37.0296 0.5,35.5C 0.639851,33.9704 1.30652,32.9704 2.5,32.5 Z"/></g>
<g><path style="opacity:1" fill="#7194f4" d="M 2.5,32.5 C 3.16667,32.5 3.83333,32.5 4.5,32.5C 4.5,34.5 4.5,36.5 4.5,38.5C 3.83333,38.5 3.16667,38.5 2.5,38.5C 2.5,36.5 2.5,34.5 2.5,32.5 Z"/></g>
<g><path style="opacity:0.502" fill="#6daef3" d="M 4.5,32.5 C 5.69348,32.9704 6.36015,33.9704 6.5,35.5C 6.36015,37.0296 5.69348,38.0296 4.5,38.5C 4.5,36.5 4.5,34.5 4.5,32.5 Z"/></g>
<g><path style="opacity:0.498" fill="#7666f4" d="M 166.5,32.5 C 166.5,34.5 166.5,36.5 166.5,38.5C 165.307,38.0296 164.64,37.0296 164.5,35.5C 164.64,33.9704 165.307,32.9704 166.5,32.5 Z"/></g>
<g><path style="opacity:0.999" fill="#6eaaf4" d="M 168.5,32.5 C 169.167,32.5 169.833,32.5 170.5,32.5C 170.5,34.5 170.5,36.5 170.5,38.5C 169.833,38.5 169.167,38.5 168.5,38.5C 168.5,36.5 168.5,34.5 168.5,32.5 Z"/></g>
<g><path style="opacity:0.928" fill="#7286f4" d="M 121.5,35.5 C 120.343,38.3074 120.343,40.9741 121.5,43.5C 120.205,44.4884 118.872,45.4884 117.5,46.5C 116.761,46.631 116.094,46.4643 115.5,46C 116.807,44.0565 116.807,42.2232 115.5,40.5C 117.46,38.8437 119.46,37.177 121.5,35.5 Z"/></g>
<g><path style="opacity:0.912" fill="#6f9ef3" d="M 139.5,39.5 C 137.88,40.8409 136.88,42.6742 136.5,45C 137.056,45.3826 137.389,45.8826 137.5,46.5C 135.833,48.5 134.167,50.5 132.5,52.5C 131.733,51.828 131.066,50.9947 130.5,50C 130.683,48.15 130.683,46.3167 130.5,44.5C 132.002,42.825 133.335,40.9917 134.5,39C 136.387,38.2204 138.054,38.3871 139.5,39.5 Z"/></g>
<g><path style="opacity:0.914" fill="#6fa4f3" d="M 139.5,39.5 C 140.833,40.1667 141.833,41.1667 142.5,42.5C 141.545,45.0621 140.878,47.3955 140.5,49.5C 139.167,48.8333 138.167,47.8333 137.5,46.5C 137.389,45.8826 137.056,45.3826 136.5,45C 136.88,42.6742 137.88,40.8409 139.5,39.5 Z"/></g>
<g><path style="opacity:0.936" fill="#737ff5" d="M 115.5,40.5 C 116.807,42.2232 116.807,44.0565 115.5,46C 116.094,46.4643 116.761,46.631 117.5,46.5C 115.777,48.2181 113.777,49.5514 111.5,50.5C 111.444,48.0204 111.778,45.3538 112.5,42.5C 113.29,41.5987 114.29,40.9321 115.5,40.5 Z"/></g>
<g><path style="opacity:0.905" fill="#7479f4" d="M 112.5,42.5 C 111.778,45.3538 111.444,48.0204 111.5,50.5C 111.167,51.5 110.5,52.1667 109.5,52.5C 108.751,51.469 108.085,50.3024 107.5,49C 108.337,47.9887 108.67,46.8221 108.5,45.5C 109.833,44.5 111.167,43.5 112.5,42.5 Z"/></g>
<g><path style="opacity:0.92" fill="#7097f4" d="M 130.5,44.5 C 130.683,46.3167 130.683,48.15 130.5,50C 131.066,50.9947 131.733,51.828 132.5,52.5C 130.5,55.1667 128.5,57.8333 126.5,60.5C 127.446,57.0243 127.446,53.691 126.5,50.5C 127.441,48.2279 128.774,46.2279 130.5,44.5 Z"/></g>
<g><path style="opacity:0.999" fill="#728cf4" d="M 166.5,43.5 C 167.167,43.5 167.833,43.5 168.5,43.5C 168.5,45.5 168.5,47.5 168.5,49.5C 167.833,49.5 167.167,49.5 166.5,49.5C 166.5,47.5 166.5,45.5 166.5,43.5 Z"/></g>
<g><path style="opacity:1" fill="#728ff4" d="M 2.5,43.5 C 3.16667,43.5 3.83333,43.5 4.5,43.5C 4.5,45.5 4.5,47.5 4.5,49.5C 3.83333,49.5 3.16667,49.5 2.5,49.5C 2.5,47.5 2.5,45.5 2.5,43.5 Z"/></g>
<g><path style="opacity:0.999" fill="#6eabf3" d="M 4.5,43.5 C 5.69348,43.9704 6.36015,44.9704 6.5,46.5C 6.36015,48.0296 5.69348,49.0296 4.5,49.5C 4.5,47.5 4.5,45.5 4.5,43.5 Z"/></g>
<g><path style="opacity:0.93" fill="#7473f5" d="M 108.5,45.5 C 108.67,46.8221 108.337,47.9887 107.5,49C 108.085,50.3024 108.751,51.469 109.5,52.5C 108.055,54.0627 106.389,55.396 104.5,56.5C 103.718,54.3154 103.385,51.982 103.5,49.5C 105.142,48.197 106.809,46.8637 108.5,45.5 Z"/></g>
<g><path style="opacity:0.999" fill="#6eaaf3" d="M 168.5,43.5 C 169.167,43.5 169.833,43.5 170.5,43.5C 170.5,45.5 170.5,47.5 170.5,49.5C 169.833,49.5 169.167,49.5 168.5,49.5C 168.5,47.5 168.5,45.5 168.5,43.5 Z"/></g>
<g><path style="opacity:1" fill="#766df5" d="M 2.5,43.5 C 2.5,45.5 2.5,47.5 2.5,49.5C 1.30652,49.0296 0.639851,48.0296 0.5,46.5C 0.639851,44.9704 1.30652,43.9704 2.5,43.5 Z"/></g>
<g><path style="opacity:0.502" fill="#7666f4" d="M 166.5,43.5 C 166.5,45.5 166.5,47.5 166.5,49.5C 165.307,49.0296 164.64,48.0296 164.5,46.5C 164.64,44.9704 165.307,43.9704 166.5,43.5 Z"/></g>
<g><path style="opacity:0.926" fill="#7192f4" d="M 126.5,50.5 C 127.446,53.691 127.446,57.0243 126.5,60.5C 125.136,62.1911 123.803,63.8577 122.5,65.5C 121.853,62.4772 121.52,59.4772 121.5,56.5C 123.177,54.4602 124.844,52.4602 126.5,50.5 Z"/></g>
<g><path style="opacity:0.87" fill="#7666f5" d="M 99.5,52.5 C 100.109,56.7358 100.109,61.4025 99.5,66.5C 91.5768,61.6351 91.5768,56.9684 99.5,52.5 Z"/></g>
<g><path style="opacity:0.951" fill="#728cf4" d="M 121.5,56.5 C 121.52,59.4772 121.853,62.4772 122.5,65.5C 121.396,67.3885 120.063,69.0552 118.5,70.5C 118.588,67.5931 118.255,64.5931 117.5,61.5C 118.864,59.8089 120.197,58.1423 121.5,56.5 Z"/></g>
<g><path style="opacity:1" fill="#728cf4" d="M 166.5,54.5 C 167.167,54.5 167.833,54.5 168.5,54.5C 168.5,56.5 168.5,58.5 168.5,60.5C 167.833,60.5 167.167,60.5 166.5,60.5C 166.5,58.5 166.5,56.5 166.5,54.5 Z"/></g>
<g><path style="opacity:0.502" fill="#7666f5" d="M 166.5,54.5 C 166.5,56.5 166.5,58.5 166.5,60.5C 165.307,60.0296 164.64,59.0296 164.5,57.5C 164.64,55.9704 165.307,54.9704 166.5,54.5 Z"/></g>
<g><path style="opacity:1" fill="#6eaaf4" d="M 168.5,54.5 C 169.167,54.5 169.833,54.5 170.5,54.5C 170.5,56.5 170.5,58.5 170.5,60.5C 169.833,60.5 169.167,60.5 168.5,60.5C 168.5,58.5 168.5,56.5 168.5,54.5 Z"/></g>
<g><path style="opacity:0.972" fill="#766df5" d="M 103.5,49.5 C 103.385,51.982 103.718,54.3154 104.5,56.5C 101.08,58.0024 100.746,60.0024 103.5,62.5C 103.537,64.7203 103.203,67.0536 102.5,69.5C 101.167,68.8333 100.167,67.8333 99.5,66.5C 100.109,61.4025 100.109,56.7358 99.5,52.5C 100.795,51.5116 102.128,50.5116 103.5,49.5 Z"/></g>
<g><path style="opacity:0.911" fill="#7286f5" d="M 117.5,61.5 C 118.255,64.5931 118.588,67.5931 118.5,70.5C 117.396,72.3885 116.063,74.0552 114.5,75.5C 114.113,72.9244 113.779,70.2577 113.5,67.5C 114.441,65.2279 115.774,63.2279 117.5,61.5 Z"/></g>
<g><path style="opacity:0.957" fill="#7473f4" d="M 29.5,62.5 C 31.1667,62.5 32.8333,62.5 34.5,62.5C 33.8592,63.4822 33.1925,64.4822 32.5,65.5C 33.8069,66.865 33.8069,68.1984 32.5,69.5C 30.5,69.5 28.5,69.5 26.5,69.5C 24.9997,66.1618 25.9997,63.8285 29.5,62.5 Z"/></g>
<g><path style="opacity:0.887" fill="#7479f5" d="M 34.5,62.5 C 36.1667,62.5 37.8333,62.5 39.5,62.5C 39.5,64.8333 39.5,67.1667 39.5,69.5C 37.1667,69.5 34.8333,69.5 32.5,69.5C 33.8069,68.1984 33.8069,66.865 32.5,65.5C 33.1925,64.4822 33.8592,63.4822 34.5,62.5 Z"/></g>
<g><path style="opacity:0.872" fill="#737ff5" d="M 39.5,62.5 C 42.5,62.5 45.5,62.5 48.5,62.5C 47.6684,64.9985 47.3351,67.3319 47.5,69.5C 44.8333,69.5 42.1667,69.5 39.5,69.5C 39.5,67.1667 39.5,64.8333 39.5,62.5 Z"/></g>
<g><path style="opacity:0.903" fill="#7286f4" d="M 48.5,62.5 C 51.1667,62.5 53.8333,62.5 56.5,62.5C 55.8592,63.4822 55.1925,64.4822 54.5,65.5C 55.3629,66.7264 55.3629,68.0597 54.5,69.5C 52.1667,69.5 49.8333,69.5 47.5,69.5C 47.3351,67.3319 47.6684,64.9985 48.5,62.5 Z"/></g>
<g><path style="opacity:0.832" fill="#718cf4" d="M 56.5,62.5 C 58.5,62.5 60.5,62.5 62.5,62.5C 62.1714,66.4182 61.5047,70.4182 60.5,74.5C 60.5,72.8333 60.5,71.1667 60.5,69.5C 58.5,69.5 56.5,69.5 54.5,69.5C 55.3629,68.0597 55.3629,66.7264 54.5,65.5C 55.1925,64.4822 55.8592,63.4822 56.5,62.5 Z"/></g>
<g><path style="opacity:0.94" fill="#7191f4" d="M 62.5,62.5 C 63.5832,62.5394 64.5832,62.8728 65.5,63.5C 66.4986,73.8119 66.8319,84.1452 66.5,94.5C 65.2117,97.7001 65.2117,101.033 66.5,104.5C 65.6602,105.735 64.6602,106.735 63.5,107.5C 61.1667,107.5 58.8333,107.5 56.5,107.5C 57.7298,105.703 58.3964,103.703 58.5,101.5C 60.4711,92.8955 61.1377,83.8955 60.5,74.5C 61.5047,70.4182 62.1714,66.4182 62.5,62.5 Z"/></g>
<g><path style="opacity:0.946" fill="#7573f5" d="M 103.5,62.5 C 104.833,63.1667 105.833,64.1667 106.5,65.5C 106.946,68.0101 106.28,70.0101 104.5,71.5C 103.5,71.1667 102.833,70.5 102.5,69.5C 103.203,67.0536 103.537,64.7203 103.5,62.5 Z"/></g>
<g><path style="opacity:0.996" fill="#775cf4" d="M 5.5,62.5 C 4.19393,71.5791 2.86059,80.9124 1.5,90.5C 2.43382,92.7022 2.10049,94.7022 0.5,96.5C 0.333486,85.495 0.500153,74.495 1,63.5C 2.35613,62.6198 3.85613,62.2865 5.5,62.5 Z"/></g>
<g><path style="opacity:0.963" fill="#7760f5" d="M 5.5,62.5 C 7.5,62.5 9.5,62.5 11.5,62.5C 10.6684,64.9985 10.3351,67.3319 10.5,69.5C 9.16667,69.5 7.83333,69.5 6.5,69.5C 6.5,83.8333 6.5,98.1667 6.5,112.5C 5.95277,114.518 4.95277,116.351 3.5,118C 4.35668,118.689 5.02335,119.522 5.5,120.5C 4.37853,136.739 3.0452,153.072 1.5,169.5C 0.502354,145.339 0.169021,121.006 0.5,96.5C 2.10049,94.7022 2.43382,92.7022 1.5,90.5C 2.86059,80.9124 4.19393,71.5791 5.5,62.5 Z"/></g>
<g><path style="opacity:0.967" fill="#7666f4" d="M 11.5,62.5 C 14.8333,62.5 18.1667,62.5 21.5,62.5C 20.9094,63.1515 20.2427,63.8182 19.5,64.5C 20.2008,66.1916 19.8675,67.8583 18.5,69.5C 15.8333,69.5 13.1667,69.5 10.5,69.5C 10.3351,67.3319 10.6684,64.9985 11.5,62.5 Z"/></g>
<g><path style="opacity:0.999" fill="#756df4" d="M 21.5,62.5 C 24.1667,62.5 26.8333,62.5 29.5,62.5C 25.9997,63.8285 24.9997,66.1618 26.5,69.5C 23.8333,69.5 21.1667,69.5 18.5,69.5C 19.8675,67.8583 20.2008,66.1916 19.5,64.5C 20.2427,63.8182 20.9094,63.1515 21.5,62.5 Z"/></g>
<g><path style="opacity:0.925" fill="#7579f5" d="M 106.5,65.5 C 108.167,66.5 109.5,67.8333 110.5,69.5C 109.833,71.5 109.167,73.5 108.5,75.5C 106.833,74.5 105.5,73.1667 104.5,71.5C 106.28,70.0101 106.946,68.0101 106.5,65.5 Z"/></g>
<g><path style="opacity:0.911" fill="#7380f4" d="M 113.5,67.5 C 113.779,70.2577 114.113,72.9244 114.5,75.5C 112.5,78.1667 110.5,78.1667 108.5,75.5C 109.167,73.5 109.833,71.5 110.5,69.5C 111.5,68.8333 112.5,68.1667 113.5,67.5 Z"/></g>
<g><path style="opacity:0.998" fill="#728cf4" d="M 166.5,65.5 C 167.167,65.5 167.833,65.5 168.5,65.5C 168.5,67.5 168.5,69.5 168.5,71.5C 167.833,71.5 167.167,71.5 166.5,71.5C 166.5,69.5 166.5,67.5 166.5,65.5 Z"/></g>
<g><path style="opacity:1" fill="#6eaaf4" d="M 168.5,65.5 C 169.167,65.5 169.833,65.5 170.5,65.5C 170.5,67.5 170.5,69.5 170.5,71.5C 169.833,71.5 169.167,71.5 168.5,71.5C 168.5,69.5 168.5,67.5 168.5,65.5 Z"/></g>
<g><path style="opacity:0.502" fill="#7667f4" d="M 166.5,65.5 C 166.5,67.5 166.5,69.5 166.5,71.5C 165.307,71.0296 164.64,70.0296 164.5,68.5C 164.64,66.9704 165.307,65.9704 166.5,65.5 Z"/></g>
<g><path style="opacity:0.971" fill="#7573f5" d="M 14.5,76.5 C 15.1667,76.5 15.8333,76.5 16.5,76.5C 15.8658,82.1448 15.5324,87.8114 15.5,93.5C 14.8333,93.5 14.1667,93.5 13.5,93.5C 14.3726,89.2315 14.7059,84.8982 14.5,80.5C 14.5,79.1667 14.5,77.8333 14.5,76.5 Z"/></g>
<g><path style="opacity:0.916" fill="#728af4" d="M 18.5,76.5 C 19.1667,76.5 19.8333,76.5 20.5,76.5C 20.5,78.5 20.5,80.5 20.5,82.5C 19.8333,82.5 19.1667,82.5 18.5,82.5C 18.5,80.5 18.5,78.5 18.5,76.5 Z"/></g>
<g><path style="opacity:0.905" fill="#7195f4" d="M 20.5,76.5 C 21.1667,76.5 21.8333,76.5 22.5,76.5C 22.7947,78.7354 22.4614,80.7354 21.5,82.5C 21.1667,82.5 20.8333,82.5 20.5,82.5C 20.5,80.5 20.5,78.5 20.5,76.5 Z"/></g>
<g><path style="opacity:0.827" fill="#6f9ef4" d="M 22.5,76.5 C 23.1667,76.5 23.8333,76.5 24.5,76.5C 23.7803,82.1377 23.447,87.8044 23.5,93.5C 22.8333,93.5 22.1667,93.5 21.5,93.5C 21.6747,91.3792 21.3414,89.3792 20.5,87.5C 21.4511,86.0813 21.7845,84.4147 21.5,82.5C 22.4614,80.7354 22.7947,78.7354 22.5,76.5 Z"/></g>
<g><path style="opacity:0.963" fill="#6ea8f4" d="M 24.5,76.5 C 25.791,76.2627 26.791,76.596 27.5,77.5C 26.5416,82.6575 25.8749,87.9908 25.5,93.5C 24.8333,93.5 24.1667,93.5 23.5,93.5C 23.447,87.8044 23.7803,82.1377 24.5,76.5 Z"/></g>
<g><path style="opacity:0.944" fill="#747af5" d="M 43.5,76.5 C 44.1667,76.5 44.8333,76.5 45.5,76.5C 45.5,78.5 45.5,80.5 45.5,82.5C 44.5489,83.9187 44.2155,85.5853 44.5,87.5C 44.5,89.5 44.5,91.5 44.5,93.5C 43.8333,93.5 43.1667,93.5 42.5,93.5C 42.9068,87.8387 43.2401,82.172 43.5,76.5 Z"/></g>
<g><path style="opacity:0.936" fill="#7191f4" d="M 46.5,76.5 C 47.5,76.5 48.5,76.5 49.5,76.5C 49.1667,78.5 48.8333,80.5 48.5,82.5C 48.1667,82.5 47.8333,82.5 47.5,82.5C 47.6747,80.3792 47.3414,78.3792 46.5,76.5 Z"/></g>
<g><path style="opacity:0.891" fill="#709df4" d="M 49.5,76.5 C 50.5,76.5 51.5,76.5 52.5,76.5C 51.5963,82.0946 50.9296,87.7613 50.5,93.5C 49.5,93.5 48.5,93.5 47.5,93.5C 48.3414,91.6208 48.6747,89.6208 48.5,87.5C 49.8333,85.8333 49.8333,84.1667 48.5,82.5C 48.8333,80.5 49.1667,78.5 49.5,76.5 Z"/></g>
<g><path style="opacity:1" fill="#7664f5" d="M 14.5,76.5 C 14.5,77.8333 14.5,79.1667 14.5,80.5C 14.0207,84.6404 13.0207,88.6404 11.5,92.5C 11.3341,87.4889 11.5007,82.4889 12,77.5C 12.6708,76.7476 13.5041,76.4142 14.5,76.5 Z"/></g>
<g><path style="opacity:0.9" fill="#6cb2f3" d="M 27.5,77.5 C 28.6111,82.4158 28.7777,87.4158 28,92.5C 27.3292,93.2524 26.4959,93.5858 25.5,93.5C 25.8749,87.9908 26.5416,82.6575 27.5,77.5 Z"/></g>
<g><path style="opacity:0.699" fill="#7760f4" d="M 39.5,77.5 C 40.1386,78.0968 40.472,78.9302 40.5,80C 40.0285,83.6766 39.3618,87.1766 38.5,90.5C 38.1818,85.9677 38.5151,81.6344 39.5,77.5 Z"/></g>
<g><path style="opacity:0.999" fill="#7570f5" d="M 167.5,76.5 C 167.5,78.5 167.5,80.5 167.5,82.5C 166.5,82.5 165.5,82.5 164.5,82.5C 164.5,80.5 164.5,78.5 164.5,76.5C 165.5,76.5 166.5,76.5 167.5,76.5 Z"/></g>
<g><path style="opacity:0.97" fill="#7388f5" d="M 45.5,76.5 C 45.8333,76.5 46.1667,76.5 46.5,76.5C 47.3414,78.3792 47.6747,80.3792 47.5,82.5C 46.8333,82.5 46.1667,82.5 45.5,82.5C 45.5,80.5 45.5,78.5 45.5,76.5 Z"/></g>
<g><path style="opacity:0.924" fill="#6db1f4" d="M 53.5,76.5 C 54.1174,76.6107 54.6174,76.944 55,77.5C 55.6667,82.5 55.6667,87.5 55,92.5C 54.3292,93.2524 53.4959,93.5858 52.5,93.5C 53.4128,87.7133 53.7462,82.0466 53.5,76.5 Z"/></g>
<g><path style="opacity:0.968" fill="#709df4" d="M 167.5,76.5 C 168.5,76.5 169.5,76.5 170.5,76.5C 170.5,78.5 170.5,80.5 170.5,82.5C 169.5,82.5 168.5,82.5 167.5,82.5C 167.5,80.5 167.5,78.5 167.5,76.5 Z"/></g>
<g><path style="opacity:1" fill="#756cf4" d="M 14.5,80.5 C 14.7059,84.8982 14.3726,89.2315 13.5,93.5C 12.5084,93.6716 11.8417,93.3382 11.5,92.5C 13.0207,88.6404 14.0207,84.6404 14.5,80.5 Z"/></g>
<g><path style="opacity:0.989" fill="#6ea9f4" d="M 52.5,76.5 C 52.8333,76.5 53.1667,76.5 53.5,76.5C 53.7462,82.0466 53.4128,87.7133 52.5,93.5C 51.8333,93.5 51.1667,93.5 50.5,93.5C 50.9296,87.7613 51.5963,82.0946 52.5,76.5 Z"/></g>
<g><path style="opacity:0.875" fill="#747cf4" d="M 16.5,76.5 C 17.1667,76.5 17.8333,76.5 18.5,76.5C 18.5,78.5 18.5,80.5 18.5,82.5C 17.5489,83.9187 17.2155,85.5853 17.5,87.5C 17.5,89.5 17.5,91.5 17.5,93.5C 16.8333,93.5 16.1667,93.5 15.5,93.5C 15.5324,87.8114 15.8658,82.1448 16.5,76.5 Z"/></g>
<g><path style="opacity:0.982" fill="#7570f5" d="M 41.5,76.5 C 42.1667,76.5 42.8333,76.5 43.5,76.5C 43.2401,82.172 42.9068,87.8387 42.5,93.5C 41.8333,93.5 41.1667,93.5 40.5,93.5C 41.0318,87.8477 41.3651,82.181 41.5,76.5 Z"/></g>
<g><path style="opacity:0.916" fill="#728af4" d="M 17.5,87.5 C 18.1667,87.5 18.8333,87.5 19.5,87.5C 19.5,89.5 19.5,91.5 19.5,93.5C 18.8333,93.5 18.1667,93.5 17.5,93.5C 17.5,91.5 17.5,89.5 17.5,87.5 Z"/></g>
<g><path style="opacity:0.928" fill="#7289f4" d="M 44.5,87.5 C 45.1667,87.5 45.8333,87.5 46.5,87.5C 46.9349,89.2967 46.9349,91.2967 46.5,93.5C 45.8333,93.5 45.1667,93.5 44.5,93.5C 44.5,91.5 44.5,89.5 44.5,87.5 Z"/></g>
<g><path style="opacity:0.905" fill="#7192f4" d="M 46.5,87.5 C 47.1667,87.5 47.8333,87.5 48.5,87.5C 48.6747,89.6208 48.3414,91.6208 47.5,93.5C 47.1667,93.5 46.8333,93.5 46.5,93.5C 46.9349,91.2967 46.9349,89.2967 46.5,87.5 Z"/></g>
<g><path style="opacity:0.973" fill="#7195f4" d="M 19.5,87.5 C 19.8333,87.5 20.1667,87.5 20.5,87.5C 21.3414,89.3792 21.6747,91.3792 21.5,93.5C 20.8333,93.5 20.1667,93.5 19.5,93.5C 19.5,91.5 19.5,89.5 19.5,87.5 Z"/></g>
<g><path style="opacity:1" fill="#728bf4" d="M 166.5,87.5 C 167.167,87.5 167.833,87.5 168.5,87.5C 168.5,89.5 168.5,91.5 168.5,93.5C 167.833,93.5 167.167,93.5 166.5,93.5C 166.5,91.5 166.5,89.5 166.5,87.5 Z"/></g>
<g><path style="opacity:0.638" fill="#7666f5" d="M 39.5,77.5 C 39.8417,76.6618 40.5084,76.3284 41.5,76.5C 41.3651,82.181 41.0318,87.8477 40.5,93.5C 39.0937,93.0269 38.427,92.0269 38.5,90.5C 39.3618,87.1766 40.0285,83.6766 40.5,80C 40.472,78.9302 40.1386,78.0968 39.5,77.5 Z"/></g>
<g><path style="opacity:0.502" fill="#7666f4" d="M 166.5,87.5 C 166.5,89.5 166.5,91.5 166.5,93.5C 165.307,93.0296 164.64,92.0296 164.5,90.5C 164.64,88.9704 165.307,87.9704 166.5,87.5 Z"/></g>
<g><path style="opacity:0.998" fill="#6eaaf3" d="M 168.5,87.5 C 169.167,87.5 169.833,87.5 170.5,87.5C 170.5,89.5 170.5,91.5 170.5,93.5C 169.833,93.5 169.167,93.5 168.5,93.5C 168.5,91.5 168.5,89.5 168.5,87.5 Z"/></g>
<g><path style="opacity:0.999" fill="#709cf4" d="M 167.5,98.5 C 168.5,98.5 169.5,98.5 170.5,98.5C 170.5,100.5 170.5,102.5 170.5,104.5C 169.5,104.5 168.5,104.5 167.5,104.5C 167.5,102.5 167.5,100.5 167.5,98.5 Z"/></g>
<g><path style="opacity:0.908" fill="#7380f4" d="M 43.5,101.5 C 43.7258,105.63 44.0592,109.463 44.5,113C 43.8333,114 43.1667,115 42.5,116C 43.3805,116.708 44.0472,117.542 44.5,118.5C 39.3334,120.176 38.3334,123.176 41.5,127.5C 41.1141,132.342 41.1141,137.176 41.5,142C 40.8333,145 40.1667,148 39.5,151C 40.7996,152.579 40.4663,153.745 38.5,154.5C 38.6663,147.492 38.4996,140.492 38,133.5C 32.6678,128.522 31.6678,122.855 35,116.5C 36.4133,114.586 38.2466,113.253 40.5,112.5C 41.3236,109.215 41.8236,105.882 42,102.5C 42.3826,101.944 42.8826,101.611 43.5,101.5 Z"/></g>
<g><path style="opacity:0.907" fill="#7285f5" d="M 43.5,101.5 C 46.1667,101.5 48.8333,101.5 51.5,101.5C 51.5,103.5 51.5,105.5 51.5,107.5C 50.1667,107.5 48.8333,107.5 47.5,107.5C 47.665,110.85 47.4983,114.183 47,117.5C 46.3292,118.252 45.4959,118.586 44.5,118.5C 44.0472,117.542 43.3805,116.708 42.5,116C 43.1667,115 43.8333,114 44.5,113C 44.0592,109.463 43.7258,105.63 43.5,101.5 Z"/></g>
<g><path style="opacity:0.926" fill="#728cf4" d="M 51.5,101.5 C 53.8333,101.5 56.1667,101.5 58.5,101.5C 58.3964,103.703 57.7298,105.703 56.5,107.5C 54.8333,107.5 53.1667,107.5 51.5,107.5C 51.5,105.5 51.5,103.5 51.5,101.5 Z"/></g>
<g><path style="opacity:0.95" fill="#7097f4" d="M 66.5,94.5 C 66.5,96.8333 66.5,99.1667 66.5,101.5C 69.1667,101.5 71.8333,101.5 74.5,101.5C 73.8333,103.5 73.1667,105.5 72.5,107.5C 69.5,107.5 66.5,107.5 63.5,107.5C 64.6602,106.735 65.6602,105.735 66.5,104.5C 65.2117,101.033 65.2117,97.7001 66.5,94.5 Z"/></g>
<g><path style="opacity:0.899" fill="#6f9ef4" d="M 74.5,101.5 C 77.8333,101.5 81.1667,101.5 84.5,101.5C 84.2488,103.17 83.5822,104.67 82.5,106C 83.7375,106.232 84.7375,106.732 85.5,107.5C 81.1667,107.5 76.8333,107.5 72.5,107.5C 73.1667,105.5 73.8333,103.5 74.5,101.5 Z"/></g>
<g><path style="opacity:0.923" fill="#6ea5f4" d="M 84.5,101.5 C 87.1667,101.5 89.8333,101.5 92.5,101.5C 91.1667,103.5 91.1667,105.5 92.5,107.5C 90.1667,107.5 87.8333,107.5 85.5,107.5C 84.7375,106.732 83.7375,106.232 82.5,106C 83.5822,104.67 84.2488,103.17 84.5,101.5 Z"/></g>
<g><path style="opacity:0.966" fill="#6eacf4" d="M 92.5,101.5 C 95.1667,101.5 97.8333,101.5 100.5,101.5C 100.632,107.37 99.9649,113.037 98.5,118.5C 97.5416,118.047 96.7083,117.381 96,116.5C 95.502,113.518 95.3354,110.518 95.5,107.5C 94.5,107.5 93.5,107.5 92.5,107.5C 91.1667,105.5 91.1667,103.5 92.5,101.5 Z"/></g>
<g><path style="opacity:0.959" fill="#7571f4" d="M 167.5,98.5 C 167.5,100.5 167.5,102.5 167.5,104.5C 166.5,104.5 165.5,104.5 164.5,104.5C 164.5,102.5 164.5,100.5 164.5,98.5C 165.5,98.5 166.5,98.5 167.5,98.5 Z"/></g>
<g><path style="opacity:0.944" fill="#6cb2f4" d="M 100.5,101.5 C 101.117,101.611 101.617,101.944 102,102.5C 102.333,105.833 102.667,109.167 103,112.5C 111.694,118.058 112.694,124.725 106,132.5C 105.667,144.5 105.333,156.5 105,168.5C 104.283,169.044 103.783,169.711 103.5,170.5C 100.5,170.5 97.5,170.5 94.5,170.5C 94.0651,168.703 94.0651,166.703 94.5,164.5C 95.8333,164.5 97.1667,164.5 98.5,164.5C 98.8274,154.319 98.494,144.319 97.5,134.5C 97.5,132.5 97.5,130.5 97.5,128.5C 101.193,128.814 103.527,127.148 104.5,123.5C 103.669,120.328 101.669,118.662 98.5,118.5C 99.9649,113.037 100.632,107.37 100.5,101.5 Z"/></g>
<g><path style="opacity:0.962" fill="#747bf5" d="M 16.5,108.5 C 16.8333,108.5 17.1667,108.5 17.5,108.5C 17.5,110.5 17.5,112.5 17.5,114.5C 17.1568,116.483 17.8235,117.817 19.5,118.5C 17.8516,120.456 17.1849,122.789 17.5,125.5C 16.5,125.5 15.5,125.5 14.5,125.5C 15.2857,119.862 15.9523,114.195 16.5,108.5 Z"/></g>
<g><path style="opacity:0.915" fill="#7285f5" d="M 17.5,108.5 C 18.1667,108.5 18.8333,108.5 19.5,108.5C 19.5,110.5 19.5,112.5 19.5,114.5C 18.8333,114.5 18.1667,114.5 17.5,114.5C 17.5,112.5 17.5,110.5 17.5,108.5 Z"/></g>
<g><path style="opacity:0.853" fill="#6f9df4" d="M 23.5,108.5 C 23.8333,108.5 24.1667,108.5 24.5,108.5C 24.0075,113.874 23.6742,119.54 23.5,125.5C 22.5,125.5 21.5,125.5 20.5,125.5C 20.5,123.167 20.5,120.833 20.5,118.5C 21.4345,117.432 21.7678,116.099 21.5,114.5C 23.0739,112.898 23.7406,110.898 23.5,108.5 Z"/></g>
<g><path style="opacity:0.993" fill="#6ea9f4" d="M 24.5,108.5 C 25.791,108.263 26.791,108.596 27.5,109.5C 26.4486,114.646 25.7819,119.979 25.5,125.5C 24.8333,125.5 24.1667,125.5 23.5,125.5C 23.6742,119.54 24.0075,113.874 24.5,108.5 Z"/></g>
<g><path style="opacity:0.979" fill="#6cb2f3" d="M 27.5,109.5 C 28.6484,113.981 28.8151,118.648 28,123.5C 27.2917,124.381 26.4584,125.047 25.5,125.5C 25.7819,119.979 26.4486,114.646 27.5,109.5 Z"/></g>
<g><path style="opacity:1" fill="#7195f4" d="M 19.5,108.5 C 20.8333,108.5 22.1667,108.5 23.5,108.5C 23.7406,110.898 23.0739,112.898 21.5,114.5C 20.8333,114.5 20.1667,114.5 19.5,114.5C 19.5,112.5 19.5,110.5 19.5,108.5 Z"/></g>
<g><path style="opacity:1" fill="#728cf4" d="M 166.5,109.5 C 167.167,109.5 167.833,109.5 168.5,109.5C 168.5,111.5 168.5,113.5 168.5,115.5C 167.833,115.5 167.167,115.5 166.5,115.5C 166.5,113.5 166.5,111.5 166.5,109.5 Z"/></g>
<g><path style="opacity:0.999" fill="#6eaaf4" d="M 168.5,109.5 C 169.167,109.5 169.833,109.5 170.5,109.5C 170.5,111.5 170.5,113.5 170.5,115.5C 169.833,115.5 169.167,115.5 168.5,115.5C 168.5,113.5 168.5,111.5 168.5,109.5 Z"/></g>
<g><path style="opacity:0.502" fill="#7567f4" d="M 166.5,109.5 C 166.5,111.5 166.5,113.5 166.5,115.5C 165.307,115.03 164.64,114.03 164.5,112.5C 164.64,110.97 165.307,109.97 166.5,109.5 Z"/></g>
<g><path style="opacity:1" fill="#756ff5" d="M 14.5,108.5 C 15.1667,108.5 15.8333,108.5 16.5,108.5C 15.9523,114.195 15.2857,119.862 14.5,125.5C 13.5084,125.672 12.8417,125.338 12.5,124.5C 13.2588,119.302 13.9254,113.969 14.5,108.5 Z"/></g>
<g><path style="opacity:0.999" fill="#7665f5" d="M 14.5,108.5 C 13.9254,113.969 13.2588,119.302 12.5,124.5C 11.5119,119.36 11.1786,114.026 11.5,108.5C 12.5,108.5 13.5,108.5 14.5,108.5 Z"/></g>
<g><path style="opacity:1" fill="#728ff4" d="M 19.5,118.5 C 19.8333,118.5 20.1667,118.5 20.5,118.5C 20.5,120.833 20.5,123.167 20.5,125.5C 19.5,125.5 18.5,125.5 17.5,125.5C 17.1849,122.789 17.8516,120.456 19.5,118.5 Z"/></g>
<g><path style="opacity:0.998" fill="#728cf4" d="M 166.5,120.5 C 167.167,120.5 167.833,120.5 168.5,120.5C 168.5,122.5 168.5,124.5 168.5,126.5C 167.833,126.5 167.167,126.5 166.5,126.5C 166.5,124.5 166.5,122.5 166.5,120.5 Z"/></g>
<g><path style="opacity:0.46" fill="#7667f4" d="M 166.5,120.5 C 166.5,122.5 166.5,124.5 166.5,126.5C 165.307,126.03 164.64,125.03 164.5,123.5C 164.64,121.97 165.307,120.97 166.5,120.5 Z"/></g>
<g><path style="opacity:0.916" fill="#6eabf4" d="M 168.5,120.5 C 169.167,120.5 169.833,120.5 170.5,120.5C 170.5,122.5 170.5,124.5 170.5,126.5C 169.833,126.5 169.167,126.5 168.5,126.5C 168.5,124.5 168.5,122.5 168.5,120.5 Z"/></g>
<g><path style="opacity:0.934" fill="#728cf4" d="M 56.5,128.5 C 55.8505,130.435 55.5172,132.435 55.5,134.5C 53.8297,134.249 52.3297,133.582 51,132.5C 50.6174,133.056 50.1174,133.389 49.5,133.5C 49.6151,131.018 49.2817,128.685 48.5,126.5C 49.172,125.733 50.0053,125.066 51,124.5C 52.9917,125.665 54.825,126.998 56.5,128.5 Z"/></g>
<g><path style="opacity:0.952" fill="#709ff4" d="M 81.5,127.5 C 81.298,129.95 81.6314,132.283 82.5,134.5C 80.9826,134.489 79.8159,133.823 79,132.5C 77.8873,133.305 76.7206,133.972 75.5,134.5C 73.0465,132.958 72.3799,130.958 73.5,128.5C 75.1233,127.221 76.79,125.887 78.5,124.5C 80.2131,124.879 81.2131,125.879 81.5,127.5 Z"/></g>
<g><path style="opacity:0.959" fill="#6eaaf4" d="M 97.5,128.5 C 97.5,130.5 97.5,132.5 97.5,134.5C 95.1944,134.007 92.861,133.674 90.5,133.5C 89.7611,133.631 89.0944,133.464 88.5,133C 89.8729,131.139 90.2062,129.306 89.5,127.5C 89.7869,125.879 90.7869,124.879 92.5,124.5C 94.1856,125.857 95.8523,127.19 97.5,128.5 Z"/></g>
<g><path style="opacity:0.947" fill="#7285f5" d="M 48.5,126.5 C 49.2817,128.685 49.6151,131.018 49.5,133.5C 48.0813,134.451 46.4147,134.784 44.5,134.5C 44.1726,144.681 44.506,154.681 45.5,164.5C 45.67,165.822 45.3366,166.989 44.5,168C 45.3805,168.708 46.0472,169.542 46.5,170.5C 43.1667,170.5 39.8333,170.5 36.5,170.5C 38.1897,168.638 38.523,166.638 37.5,164.5C 38.4794,161.375 38.8128,158.042 38.5,154.5C 40.4663,153.745 40.7996,152.579 39.5,151C 40.1667,148 40.8333,145 41.5,142C 41.1141,137.176 41.1141,132.342 41.5,127.5C 44.0835,128.938 46.4168,128.604 48.5,126.5 Z"/></g>
<g><path style="opacity:0.975" fill="#7098f4" d="M 73.5,128.5 C 72.3799,130.958 73.0465,132.958 75.5,134.5C 71.7432,134.929 68.2432,134.263 65,132.5C 64.3292,133.252 63.4959,133.586 62.5,133.5C 62.5774,132.25 63.244,131.417 64.5,131C 62.9632,129.89 62.2965,128.39 62.5,126.5C 64.9704,124.32 67.3037,124.82 69.5,128C 70.7932,128.49 72.1266,128.657 73.5,128.5 Z"/></g>
<g><path style="opacity:0.951" fill="#7192f3" d="M 62.5,126.5 C 62.2965,128.39 62.9632,129.89 64.5,131C 63.244,131.417 62.5774,132.25 62.5,133.5C 60.3926,134.468 58.0593,134.802 55.5,134.5C 55.5172,132.435 55.8505,130.435 56.5,128.5C 58.8583,128.747 60.8583,128.081 62.5,126.5 Z"/></g>
<g><path style="opacity:0.946" fill="#6fa5f4" d="M 81.5,127.5 C 84.1667,128.833 86.8333,128.833 89.5,127.5C 90.2062,129.306 89.8729,131.139 88.5,133C 89.0944,133.464 89.7611,133.631 90.5,133.5C 88.0521,134.473 85.3854,134.806 82.5,134.5C 81.6314,132.283 81.298,129.95 81.5,127.5 Z"/></g>
<g><path style="opacity:0.999" fill="#7197f4" d="M 166.5,131.5 C 167.833,131.5 169.167,131.5 170.5,131.5C 170.5,133.5 170.5,135.5 170.5,137.5C 169.167,137.5 167.833,137.5 166.5,137.5C 166.5,135.5 166.5,133.5 166.5,131.5 Z"/></g>
<g><path style="opacity:0.46" fill="#7667f4" d="M 166.5,131.5 C 166.5,133.5 166.5,135.5 166.5,137.5C 165.307,137.03 164.64,136.03 164.5,134.5C 164.64,132.97 165.307,131.97 166.5,131.5 Z"/></g>
<g><path style="opacity:0.916" fill="#7479f5" d="M 15.5,139.5 C 16.1667,139.5 16.8333,139.5 17.5,139.5C 17.5,141.5 17.5,143.5 17.5,145.5C 17.5,147.167 17.5,148.833 17.5,150.5C 17.5,152.5 17.5,154.5 17.5,156.5C 16.5,156.5 15.5,156.5 14.5,156.5C 14.5669,150.53 14.9002,144.863 15.5,139.5 Z"/></g>
<g><path style="opacity:0.805" fill="#709cf4" d="M 21.5,139.5 C 22.5,139.5 23.5,139.5 24.5,139.5C 23.8658,145.145 23.5324,150.811 23.5,156.5C 22.1667,156.5 20.8333,156.5 19.5,156.5C 19.5,154.5 19.5,152.5 19.5,150.5C 21.256,149.448 21.9227,147.781 21.5,145.5C 21.5,143.5 21.5,141.5 21.5,139.5 Z"/></g>
<g><path style="opacity:0.929" fill="#7666f4" d="M 57.5,139.5 C 58.5,139.5 59.5,139.5 60.5,139.5C 60.2413,146.313 59.2413,152.979 57.5,159.5C 56.1667,158.833 55.1667,157.833 54.5,156.5C 56.4713,152.27 57.8046,147.604 58.5,142.5C 58.315,141.416 57.9817,140.416 57.5,139.5 Z"/></g>
<g><path style="opacity:0.805" fill="#756df4" d="M 60.5,139.5 C 61.5,139.5 62.5,139.5 63.5,139.5C 63.5759,141.304 63.2425,143.304 62.5,145.5C 61.1667,148.167 61.1667,150.833 62.5,153.5C 62.5,155.5 62.5,157.5 62.5,159.5C 60.8333,159.5 59.1667,159.5 57.5,159.5C 59.2413,152.979 60.2413,146.313 60.5,139.5 Z"/></g>
<g><path style="opacity:0.96" fill="#7477f5" d="M 63.5,139.5 C 64.8333,139.5 66.1667,139.5 67.5,139.5C 67.1667,141.5 66.8333,143.5 66.5,145.5C 65.1667,145.5 63.8333,145.5 62.5,145.5C 63.2425,143.304 63.5759,141.304 63.5,139.5 Z"/></g>
<g><path style="opacity:0.961" fill="#6f9ef3" d="M 78.5,139.5 C 79.5,139.5 80.5,139.5 81.5,139.5C 81.1667,141.5 80.8333,143.5 80.5,145.5C 79.5,145.5 78.5,145.5 77.5,145.5C 78.1495,143.565 78.4828,141.565 78.5,139.5 Z"/></g>
<g><path style="opacity:0.925" fill="#6eabf3" d="M 83.5,139.5 C 84.5,139.5 85.5,139.5 86.5,139.5C 85.2836,146.132 84.2836,152.799 83.5,159.5C 82.5,159.5 81.5,159.5 80.5,159.5C 81.1667,157.5 81.8333,155.5 82.5,153.5C 82.5,150.833 82.5,148.167 82.5,145.5C 83.4614,143.735 83.7947,141.735 83.5,139.5 Z"/></g>
<g><path style="opacity:0.95" fill="#7760f5" d="M 13.5,139.5 C 13.5,140.5 13.5,141.5 13.5,142.5C 12.8333,145.833 12.1667,149.167 11.5,152.5C 11.3345,148.486 11.5012,144.486 12,140.5C 12.3826,139.944 12.8826,139.611 13.5,139.5 Z"/></g>
<g><path style="opacity:0.999" fill="#7284f4" d="M 17.5,139.5 C 18.1667,139.5 18.8333,139.5 19.5,139.5C 19.5,141.5 19.5,143.5 19.5,145.5C 18.8333,145.5 18.1667,145.5 17.5,145.5C 17.5,143.5 17.5,141.5 17.5,139.5 Z"/></g>
<g><path style="opacity:1" fill="#7190f4" d="M 19.5,139.5 C 20.1667,139.5 20.8333,139.5 21.5,139.5C 21.5,141.5 21.5,143.5 21.5,145.5C 20.8333,145.5 20.1667,145.5 19.5,145.5C 19.5,143.5 19.5,141.5 19.5,139.5 Z"/></g>
<g><path style="opacity:0.999" fill="#6ea9f4" d="M 24.5,139.5 C 25.4916,139.328 26.1583,139.662 26.5,140.5C 26.4312,145.854 26.0978,151.187 25.5,156.5C 24.8333,156.5 24.1667,156.5 23.5,156.5C 23.5324,150.811 23.8658,145.145 24.5,139.5 Z"/></g>
<g><path style="opacity:0.83" fill="#6cb2f3" d="M 26.5,140.5 C 27.1174,140.611 27.6174,140.944 28,141.5C 28.6667,146.167 28.6667,150.833 28,155.5C 27.3292,156.252 26.4959,156.586 25.5,156.5C 26.0978,151.187 26.4312,145.854 26.5,140.5 Z"/></g>
<g><path style="opacity:0.686" fill="#7760f5" d="M 57.5,139.5 C 57.9817,140.416 58.315,141.416 58.5,142.5C 57.8046,147.604 56.4713,152.27 54.5,156.5C 54.3341,151.489 54.5007,146.489 55,141.5C 55.7083,140.619 56.5416,139.953 57.5,139.5 Z"/></g>
<g><path style="opacity:0.999" fill="#7382f4" d="M 67.5,139.5 C 69.1667,139.5 70.8333,139.5 72.5,139.5C 71.8333,141.5 71.1667,143.5 70.5,145.5C 69.1667,145.5 67.8333,145.5 66.5,145.5C 66.8333,143.5 67.1667,141.5 67.5,139.5 Z"/></g>
<g><path style="opacity:0.999" fill="#718ef4" d="M 72.5,139.5 C 73.5,139.5 74.5,139.5 75.5,139.5C 75.5,141.5 75.5,143.5 75.5,145.5C 73.8333,145.5 72.1667,145.5 70.5,145.5C 71.1667,143.5 71.8333,141.5 72.5,139.5 Z"/></g>
<g><path style="opacity:0.999" fill="#7098f4" d="M 75.5,139.5 C 76.5,139.5 77.5,139.5 78.5,139.5C 78.4828,141.565 78.1495,143.565 77.5,145.5C 76.8333,145.5 76.1667,145.5 75.5,145.5C 75.5,143.5 75.5,141.5 75.5,139.5 Z"/></g>
<g><path style="opacity:0.999" fill="#6fa5f4" d="M 81.5,139.5 C 82.1667,139.5 82.8333,139.5 83.5,139.5C 83.7947,141.735 83.4614,143.735 82.5,145.5C 81.8333,145.5 81.1667,145.5 80.5,145.5C 80.8333,143.5 81.1667,141.5 81.5,139.5 Z"/></g>
<g><path style="opacity:0.947" fill="#6db2f3" d="M 86.5,139.5 C 87.1174,139.611 87.6174,139.944 88,140.5C 88.6667,146.5 88.6667,152.5 88,158.5C 86.6439,159.38 85.1439,159.714 83.5,159.5C 84.2836,152.799 85.2836,146.132 86.5,139.5 Z"/></g>
<g><path style="opacity:0.958" fill="#7665f4" d="M 6.5,112.5 C 6.5,129.833 6.5,147.167 6.5,164.5C 7.5,164.5 8.5,164.5 9.5,164.5C 10.3799,166.611 10.3799,168.611 9.5,170.5C 6.83333,170.5 4.16667,170.5 1.5,170.5C 1.5,170.167 1.5,169.833 1.5,169.5C 3.0452,153.072 4.37853,136.739 5.5,120.5C 5.02335,119.522 4.35668,118.689 3.5,118C 4.95277,116.351 5.95277,114.518 6.5,112.5 Z"/></g>
<g><path style="opacity:1" fill="#6fa0f4" d="M 167.5,142.5 C 168.5,142.5 169.5,142.5 170.5,142.5C 170.5,144.5 170.5,146.5 170.5,148.5C 169.5,148.5 168.5,148.5 167.5,148.5C 167.5,146.5 167.5,144.5 167.5,142.5 Z"/></g>
<g><path style="opacity:0.972" fill="#756df5" d="M 13.5,139.5 C 14.1667,139.5 14.8333,139.5 15.5,139.5C 14.9002,144.863 14.5669,150.53 14.5,156.5C 13.8333,156.5 13.1667,156.5 12.5,156.5C 13.3833,151.897 13.7166,147.23 13.5,142.5C 13.5,141.5 13.5,140.5 13.5,139.5 Z"/></g>
<g><path style="opacity:0.918" fill="#7571f4" d="M 167.5,142.5 C 167.5,144.5 167.5,146.5 167.5,148.5C 166.5,148.5 165.5,148.5 164.5,148.5C 164.5,146.5 164.5,144.5 164.5,142.5C 165.5,142.5 166.5,142.5 167.5,142.5 Z"/></g>
<g><path style="opacity:0.998" fill="#7666f4" d="M 13.5,142.5 C 13.7166,147.23 13.3833,151.897 12.5,156.5C 11.5655,155.432 11.2322,154.099 11.5,152.5C 12.1667,149.167 12.8333,145.833 13.5,142.5 Z"/></g>
<g><path style="opacity:0.915" fill="#728bf5" d="M 17.5,150.5 C 18.1667,150.5 18.8333,150.5 19.5,150.5C 19.5,152.5 19.5,154.5 19.5,156.5C 18.8333,156.5 18.1667,156.5 17.5,156.5C 17.5,154.5 17.5,152.5 17.5,150.5 Z"/></g>
<g><path style="opacity:0.905" fill="#737df5" d="M 62.5,153.5 C 64.1667,153.5 65.8333,153.5 67.5,153.5C 67.4828,155.565 67.1495,157.565 66.5,159.5C 65.1667,159.5 63.8333,159.5 62.5,159.5C 62.5,157.5 62.5,155.5 62.5,153.5 Z"/></g>
<g><path style="opacity:0.918" fill="#728af5" d="M 67.5,153.5 C 68.8333,153.5 70.1667,153.5 71.5,153.5C 71.1667,155.5 70.8333,157.5 70.5,159.5C 69.1667,159.5 67.8333,159.5 66.5,159.5C 67.1495,157.565 67.4828,155.565 67.5,153.5 Z"/></g>
<g><path style="opacity:0.91" fill="#7192f4" d="M 71.5,153.5 C 72.1667,153.5 72.8333,153.5 73.5,153.5C 73.6747,155.621 73.3414,157.621 72.5,159.5C 71.8333,159.5 71.1667,159.5 70.5,159.5C 70.8333,157.5 71.1667,155.5 71.5,153.5 Z"/></g>
<g><path style="opacity:0.897" fill="#7098f4" d="M 73.5,153.5 C 74.5,153.5 75.5,153.5 76.5,153.5C 76.5,155.5 76.5,157.5 76.5,159.5C 75.1667,159.5 73.8333,159.5 72.5,159.5C 73.3414,157.621 73.6747,155.621 73.5,153.5 Z"/></g>
<g><path style="opacity:0.914" fill="#6f9ff4" d="M 76.5,153.5 C 77.5,153.5 78.5,153.5 79.5,153.5C 78.8505,155.435 78.5172,157.435 78.5,159.5C 77.8333,159.5 77.1667,159.5 76.5,159.5C 76.5,157.5 76.5,155.5 76.5,153.5 Z"/></g>
<g><path style="opacity:0.906" fill="#6fa5f4" d="M 79.5,153.5 C 80.5,153.5 81.5,153.5 82.5,153.5C 81.8333,155.5 81.1667,157.5 80.5,159.5C 79.8333,159.5 79.1667,159.5 78.5,159.5C 78.5172,157.435 78.8505,155.435 79.5,153.5 Z"/></g>
<g><path style="opacity:1" fill="#728cf4" d="M 166.5,153.5 C 167.167,153.5 167.833,153.5 168.5,153.5C 168.5,155.5 168.5,157.5 168.5,159.5C 167.833,159.5 167.167,159.5 166.5,159.5C 166.5,157.5 166.5,155.5 166.5,153.5 Z"/></g>
<g><path style="opacity:0.907" fill="#6eaaf4" d="M 168.5,153.5 C 169.167,153.5 169.833,153.5 170.5,153.5C 170.5,155.5 170.5,157.5 170.5,159.5C 169.833,159.5 169.167,159.5 168.5,159.5C 168.5,157.5 168.5,155.5 168.5,153.5 Z"/></g>
<g><path style="opacity:0.406" fill="#7667f5" d="M 166.5,153.5 C 166.5,155.5 166.5,157.5 166.5,159.5C 165.307,159.03 164.64,158.03 164.5,156.5C 164.64,154.97 165.307,153.97 166.5,153.5 Z"/></g>
<g><path style="opacity:0.907" fill="#756df5" d="M 9.5,164.5 C 12.1667,164.5 14.8333,164.5 17.5,164.5C 16.1667,166.5 16.1667,168.5 17.5,170.5C 14.8333,170.5 12.1667,170.5 9.5,170.5C 10.3799,168.611 10.3799,166.611 9.5,164.5 Z"/></g>
<g><path style="opacity:0.919" fill="#7473f5" d="M 17.5,164.5 C 19.5,164.5 21.5,164.5 23.5,164.5C 24.2425,166.696 24.5759,168.696 24.5,170.5C 22.1667,170.5 19.8333,170.5 17.5,170.5C 16.1667,168.5 16.1667,166.5 17.5,164.5 Z"/></g>
<g><path style="opacity:0.914" fill="#7479f5" d="M 23.5,164.5 C 25.8333,164.5 28.1667,164.5 30.5,164.5C 30.3253,166.621 30.6586,168.621 31.5,170.5C 29.1667,170.5 26.8333,170.5 24.5,170.5C 24.5759,168.696 24.2425,166.696 23.5,164.5 Z"/></g>
<g><path style="opacity:0.935" fill="#737ff5" d="M 30.5,164.5 C 32.8333,164.5 35.1667,164.5 37.5,164.5C 38.523,166.638 38.1897,168.638 36.5,170.5C 34.8333,170.5 33.1667,170.5 31.5,170.5C 30.6586,168.621 30.3253,166.621 30.5,164.5 Z"/></g>
<g><path style="opacity:0.914" fill="#728cf4" d="M 45.5,164.5 C 47.8333,164.5 50.1667,164.5 52.5,164.5C 52.5792,165.93 52.2458,167.264 51.5,168.5C 52.2427,169.182 52.9094,169.849 53.5,170.5C 51.1667,170.5 48.8333,170.5 46.5,170.5C 46.0472,169.542 45.3805,168.708 44.5,168C 45.3366,166.989 45.67,165.822 45.5,164.5 Z"/></g>
<g><path style="opacity:0.932" fill="#7192f4" d="M 52.5,164.5 C 55.5,164.5 58.5,164.5 61.5,164.5C 59.752,165.789 59.4186,167.289 60.5,169C 59.5842,169.278 58.9175,169.778 58.5,170.5C 56.8333,170.5 55.1667,170.5 53.5,170.5C 52.9094,169.849 52.2427,169.182 51.5,168.5C 52.2458,167.264 52.5792,165.93 52.5,164.5 Z"/></g>
<g><path style="opacity:0.946" fill="#7098f4" d="M 61.5,164.5 C 64.5,164.5 67.5,164.5 70.5,164.5C 70.5123,166.412 70.179,168.412 69.5,170.5C 65.8333,170.5 62.1667,170.5 58.5,170.5C 58.9175,169.778 59.5842,169.278 60.5,169C 59.4186,167.289 59.752,165.789 61.5,164.5 Z"/></g>
<g><path style="opacity:0.907" fill="#6f9ff4" d="M 70.5,164.5 C 73.1667,164.5 75.8333,164.5 78.5,164.5C 77.6586,166.379 77.3253,168.379 77.5,170.5C 74.8333,170.5 72.1667,170.5 69.5,170.5C 70.179,168.412 70.5123,166.412 70.5,164.5 Z"/></g>
<g><path style="opacity:0.919" fill="#6ea5f4" d="M 78.5,164.5 C 81.1667,164.5 83.8333,164.5 86.5,164.5C 85.7249,166.612 85.7249,168.612 86.5,170.5C 83.5,170.5 80.5,170.5 77.5,170.5C 77.3253,168.379 77.6586,166.379 78.5,164.5 Z"/></g>
<g><path style="opacity:0.918" fill="#6eabf4" d="M 86.5,164.5 C 89.1667,164.5 91.8333,164.5 94.5,164.5C 94.0651,166.703 94.0651,168.703 94.5,170.5C 91.8333,170.5 89.1667,170.5 86.5,170.5C 85.7249,168.612 85.7249,166.612 86.5,164.5 Z"/></g>
<g><path style="opacity:0.999" fill="#728cf4" d="M 166.5,164.5 C 167.167,164.5 167.833,164.5 168.5,164.5C 168.5,166.5 168.5,168.5 168.5,170.5C 167.833,170.5 167.167,170.5 166.5,170.5C 166.5,168.5 166.5,166.5 166.5,164.5 Z"/></g>
<g><path style="opacity:0.376" fill="#7664f3" d="M 122.5,164.5 C 122.5,166.5 122.5,168.5 122.5,170.5C 121.833,170.5 121.167,170.5 120.5,170.5C 120.025,167.918 120.692,165.918 122.5,164.5 Z"/></g>
<g><path style="opacity:0.906" fill="#7190f4" d="M 144.5,164.5 C 145.5,164.5 146.5,164.5 147.5,164.5C 147.5,166.5 147.5,168.5 147.5,170.5C 146.5,170.5 145.5,170.5 144.5,170.5C 144.5,168.5 144.5,166.5 144.5,164.5 Z"/></g>
<g><path style="opacity:0.906" fill="#728bf4" d="M 155.5,164.5 C 156.167,164.5 156.833,164.5 157.5,164.5C 157.5,166.5 157.5,168.5 157.5,170.5C 156.833,170.5 156.167,170.5 155.5,170.5C 155.5,168.5 155.5,166.5 155.5,164.5 Z"/></g>
<g><path style="opacity:0.875" fill="#728af4" d="M 122.5,164.5 C 123.167,164.5 123.833,164.5 124.5,164.5C 124.5,166.5 124.5,168.5 124.5,170.5C 123.833,170.5 123.167,170.5 122.5,170.5C 122.5,168.5 122.5,166.5 122.5,164.5 Z"/></g>
<g><path style="opacity:0.873" fill="#6eadf6" d="M 124.5,164.5 C 125.5,164.5 126.5,164.5 127.5,164.5C 127.5,166.5 127.5,168.5 127.5,170.5C 126.5,170.5 125.5,170.5 124.5,170.5C 124.5,168.5 124.5,166.5 124.5,164.5 Z"/></g>
<g><path style="opacity:0.376" fill="#7665f3" d="M 133.5,164.5 C 133.5,166.5 133.5,168.5 133.5,170.5C 132.833,170.5 132.167,170.5 131.5,170.5C 131.025,167.918 131.692,165.918 133.5,164.5 Z"/></g>
<g><path style="opacity:0.876" fill="#728bf4" d="M 133.5,164.5 C 134.167,164.5 134.833,164.5 135.5,164.5C 135.5,166.5 135.5,168.5 135.5,170.5C 134.833,170.5 134.167,170.5 133.5,170.5C 133.5,168.5 133.5,166.5 133.5,164.5 Z"/></g>
<g><path style="opacity:0.873" fill="#6eacf6" d="M 135.5,164.5 C 136.5,164.5 137.5,164.5 138.5,164.5C 138.5,166.5 138.5,168.5 138.5,170.5C 137.5,170.5 136.5,170.5 135.5,170.5C 135.5,168.5 135.5,166.5 135.5,164.5 Z"/></g>
<g><path style="opacity:0.376" fill="#7565f3" d="M 144.5,164.5 C 144.5,166.5 144.5,168.5 144.5,170.5C 143.833,170.5 143.167,170.5 142.5,170.5C 142.025,167.918 142.692,165.918 144.5,164.5 Z"/></g>
<g><path style="opacity:0.875" fill="#6cb3f7" d="M 147.5,164.5 C 149.308,165.918 149.975,167.918 149.5,170.5C 148.833,170.5 148.167,170.5 147.5,170.5C 147.5,168.5 147.5,166.5 147.5,164.5 Z"/></g>
<g><path style="opacity:0.875" fill="#6eaaf4" d="M 157.5,164.5 C 159.308,165.918 159.975,167.918 159.5,170.5C 158.833,170.5 158.167,170.5 157.5,170.5C 157.5,168.5 157.5,166.5 157.5,164.5 Z"/></g>
<g><path style="opacity:0.873" fill="#6eaaf4" d="M 168.5,164.5 C 169.167,164.5 169.833,164.5 170.5,164.5C 170.5,166.5 170.5,168.5 170.5,170.5C 169.833,170.5 169.167,170.5 168.5,170.5C 168.5,168.5 168.5,166.5 168.5,164.5 Z"/></g>
<g><path style="opacity:0.498" fill="#7666f4" d="M 155.5,164.5 C 155.5,166.5 155.5,168.5 155.5,170.5C 154.833,170.5 154.167,170.5 153.5,170.5C 153.025,167.918 153.692,165.918 155.5,164.5 Z"/></g>
<g><path style="opacity:0.502" fill="#7667f4" d="M 166.5,164.5 C 166.5,166.5 166.5,168.5 166.5,170.5C 165.833,170.5 165.167,170.5 164.5,170.5C 164.025,167.918 164.692,165.918 166.5,164.5 Z"/></g>
</svg>
