<?xml version="1.0" encoding="UTF-8"?>
<!DOCTYPE svg PUBLIC "-//W3C//DTD SVG 1.1//EN" "http://www.w3.org/Graphics/SVG/1.1/DTD/svg11.dtd">
<svg xmlns="http://www.w3.org/2000/svg" version="1.1" width="164px" height="169px" style="shape-rendering:geometricPrecision; text-rendering:geometricPrecision; image-rendering:optimizeQuality; fill-rule:evenodd; clip-rule:evenodd" xmlns:xlink="http://www.w3.org/1999/xlink">
<g><path style="opacity:0.979" fill="#775cf5" d="M 2.5,0.5 C 3.80826,1.2323 5.14159,2.06564 6.5,3C 7.10811,5.18412 6.44145,7.18412 4.5,9C 5.09442,9.46434 5.76109,9.63101 6.5,9.5C 6.5,11.5 6.5,13.5 6.5,15.5C 5.77842,15.0825 5.27842,14.4158 5,13.5C 4.27969,15.1124 4.44636,16.6124 5.5,18C 4.83333,18.6667 4.16667,19.3333 3.5,20C 2.25399,27.7546 2.25399,35.4213 3.5,43C 1.25594,45.3764 0.922602,48.0431 2.5,51C 1.85445,54.893 0.854447,58.7263 -0.5,62.5C -0.5,42.1667 -0.5,21.8333 -0.5,1.5C 0.608953,1.44312 1.60895,1.10978 2.5,0.5 Z"/></g>
<g><path style="opacity:0.967" fill="#7760f4" d="M 2.5,0.5 C 8.16667,0.5 13.8333,0.5 19.5,0.5C 16.0133,1.38786 14.6799,3.72119 15.5,7.5C 14.209,7.26269 13.209,7.59603 12.5,8.5C 10.2646,8.20528 8.26465,8.53862 6.5,9.5C 5.76109,9.63101 5.09442,9.46434 4.5,9C 6.44145,7.18412 7.10811,5.18412 6.5,3C 5.14159,2.06564 3.80826,1.2323 2.5,0.5 Z"/></g>
<g><path style="opacity:0.877" fill="#7666f5" d="M 19.5,0.5 C 22.5,0.5 25.5,0.5 28.5,0.5C 28.7154,3.12791 28.0487,5.79458 26.5,8.5C 21.8333,8.5 17.1667,8.5 12.5,8.5C 13.209,7.59603 14.209,7.26269 15.5,7.5C 14.6799,3.72119 16.0133,1.38786 19.5,0.5 Z"/></g>
<g><path style="opacity:0.961" fill="#756df4" d="M 28.5,0.5 C 31.1667,0.5 33.8333,0.5 36.5,0.5C 37.2625,1.26791 38.2625,1.76791 39.5,2C 39.404,4.23741 39.404,6.40408 39.5,8.5C 35.1667,8.5 30.8333,8.5 26.5,8.5C 28.0487,5.79458 28.7154,3.12791 28.5,0.5 Z"/></g>
<g><path style="opacity:0.913" fill="#7473f4" d="M 36.5,0.5 C 40.1667,0.5 43.8333,0.5 47.5,0.5C 49.8513,4.1446 49.518,6.81127 46.5,8.5C 44.1667,8.5 41.8333,8.5 39.5,8.5C 39.404,6.40408 39.404,4.23741 39.5,2C 38.2625,1.76791 37.2625,1.26791 36.5,0.5 Z"/></g>
<g><path style="opacity:0.867" fill="#7479f4" d="M 47.5,0.5 C 51.8333,0.5 56.1667,0.5 60.5,0.5C 58.5333,3.01238 58.2,5.67905 59.5,8.5C 55.1667,8.5 50.8333,8.5 46.5,8.5C 49.518,6.81127 49.8513,4.1446 47.5,0.5 Z"/></g>
<g><path style="opacity:0.923" fill="#737ff4" d="M 60.5,0.5 C 62.8333,0.5 65.1667,0.5 67.5,0.5C 69.0758,1.28321 70.4092,2.44988 71.5,4C 70.8333,4.33333 70.1667,4.66667 69.5,5C 70.1712,5.98619 70.1712,7.15286 69.5,8.5C 66.1667,8.5 62.8333,8.5 59.5,8.5C 58.2,5.67905 58.5333,3.01238 60.5,0.5 Z"/></g>
<g><path style="opacity:0.92" fill="#7386f4" d="M 67.5,0.5 C 72.1667,0.5 76.8333,0.5 81.5,0.5C 81.7135,2.14387 81.3802,3.64387 80.5,5C 81.305,6.11268 81.9717,7.27935 82.5,8.5C 78.1667,8.5 73.8333,8.5 69.5,8.5C 70.1712,7.15286 70.1712,5.98619 69.5,5C 70.1667,4.66667 70.8333,4.33333 71.5,4C 70.4092,2.44988 69.0758,1.28321 67.5,0.5 Z"/></g>
<g><path style="opacity:0.923" fill="#728cf4" d="M 81.5,0.5 C 84.8333,0.5 88.1667,0.5 91.5,0.5C 91.5,2.83333 91.5,5.16667 91.5,7.5C 89.901,7.23219 88.5676,7.56552 87.5,8.5C 85.8333,8.5 84.1667,8.5 82.5,8.5C 81.9717,7.27935 81.305,6.11268 80.5,5C 81.3802,3.64387 81.7135,2.14387 81.5,0.5 Z"/></g>
<g><path style="opacity:0.935" fill="#7192f3" d="M 91.5,0.5 C 95.8333,0.5 100.167,0.5 104.5,0.5C 103.994,3.39098 102.994,6.05765 101.5,8.5C 96.8333,8.5 92.1667,8.5 87.5,8.5C 88.5676,7.56552 89.901,7.23219 91.5,7.5C 91.5,5.16667 91.5,2.83333 91.5,0.5 Z"/></g>
<g><path style="opacity:0.981" fill="#7098f4" d="M 104.5,0.5 C 105.583,0.53944 106.583,0.872773 107.5,1.5C 108.499,16.4852 108.833,31.4852 108.5,46.5C 109.5,46.5 110.5,46.5 111.5,46.5C 112.263,47.2679 113.263,47.7679 114.5,48C 112.925,50.1443 112.592,52.311 113.5,54.5C 111.833,54.5 110.167,54.5 108.5,54.5C 108.5,56.1667 108.5,57.8333 108.5,59.5C 111.167,59.5 113.833,59.5 116.5,59.5C 115.432,60.4345 114.099,60.7678 112.5,60.5C 112.739,62.4672 112.406,64.3005 111.5,66C 112.737,66.2321 113.737,66.7321 114.5,67.5C 112.5,67.5 110.5,67.5 108.5,67.5C 108.183,71.7016 108.517,75.7016 109.5,79.5C 109.918,80.2216 110.584,80.7216 111.5,81C 110.594,82.6995 110.261,84.5328 110.5,86.5C 105.833,86.5 101.167,86.5 96.5,86.5C 96.588,82.6945 95.9213,79.0278 94.5,75.5C 95.0671,73.0177 95.7337,70.6843 96.5,68.5C 96.5,72.1667 96.5,75.8333 96.5,79.5C 98.1667,79.5 99.8333,79.5 101.5,79.5C 101.5,55.8333 101.5,32.1667 101.5,8.5C 102.994,6.05765 103.994,3.39098 104.5,0.5 Z"/></g>
<g><path style="opacity:0.942" fill="#7760f4" d="M 6.5,15.5 C 6.5,49.1667 6.5,82.8333 6.5,116.5C 3.21519,117.089 2.88185,118.256 5.5,120C 4.83333,122 4.16667,124 3.5,126C 3.91951,128.823 4.25284,131.656 4.5,134.5C 2.61747,141.236 2.28414,148.069 3.5,155C 2.83333,155.333 2.16667,155.667 1.5,156C 1.83333,157.667 2.16667,159.333 2.5,161C 0.751235,163.437 0.0845687,165.937 0.5,168.5C 0.166667,168.5 -0.166667,168.5 -0.5,168.5C -0.5,133.167 -0.5,97.8333 -0.5,62.5C 0.854447,58.7263 1.85445,54.893 2.5,51C 0.922602,48.0431 1.25594,45.3764 3.5,43C 2.25399,35.4213 2.25399,27.7546 3.5,20C 4.16667,19.3333 4.83333,18.6667 5.5,18C 4.44636,16.6124 4.27969,15.1124 5,13.5C 5.27842,14.4158 5.77842,15.0825 6.5,15.5 Z"/></g>
<g><path style="opacity:0.964" fill="#756df5" d="M 28.5,13.5 C 31.5,13.5 34.5,13.5 37.5,13.5C 38.9526,14.8249 38.6192,15.6582 36.5,16C 37.1667,16.6667 37.8333,17.3333 38.5,18C 36.2663,19.585 33.933,20.7516 31.5,21.5C 30.1667,21.5 28.8333,21.5 27.5,21.5C 26.6722,19.2386 26.3389,17.0719 26.5,15C 27.4158,14.7216 28.0825,14.2216 28.5,13.5 Z"/></g>
<g><path style="opacity:0.965" fill="#7573f4" d="M 37.5,13.5 C 41.5,13.5 45.5,13.5 49.5,13.5C 49.0825,14.2216 48.4158,14.7216 47.5,15C 47.6158,16.2682 47.9491,17.6015 48.5,19C 47.4293,19.8518 46.4293,20.6851 45.5,21.5C 40.8333,21.5 36.1667,21.5 31.5,21.5C 33.933,20.7516 36.2663,19.585 38.5,18C 37.8333,17.3333 37.1667,16.6667 36.5,16C 38.6192,15.6582 38.9526,14.8249 37.5,13.5 Z"/></g>
<g><path style="opacity:0.953" fill="#7479f4" d="M 49.5,13.5 C 52.1667,13.5 54.8333,13.5 57.5,13.5C 58.1495,15.4771 58.1495,17.3105 57.5,19C 58.0556,20.0111 58.7222,20.8444 59.5,21.5C 54.8333,21.5 50.1667,21.5 45.5,21.5C 46.4293,20.6851 47.4293,19.8518 48.5,19C 47.9491,17.6015 47.6158,16.2682 47.5,15C 48.4158,14.7216 49.0825,14.2216 49.5,13.5 Z"/></g>
<g><path style="opacity:0.91" fill="#737ff4" d="M 57.5,13.5 C 61.1667,13.5 64.8333,13.5 68.5,13.5C 68.9175,14.2216 69.5842,14.7216 70.5,15C 69.8333,15.3333 69.1667,15.6667 68.5,16C 69.5361,17.7755 69.5361,19.6089 68.5,21.5C 65.5,21.5 62.5,21.5 59.5,21.5C 58.7222,20.8444 58.0556,20.0111 57.5,19C 58.1495,17.3105 58.1495,15.4771 57.5,13.5 Z"/></g>
<g><path style="opacity:0.948" fill="#7286f4" d="M 68.5,13.5 C 72.8333,13.5 77.1667,13.5 81.5,13.5C 80.9094,14.1515 80.2427,14.8182 79.5,15.5C 80.9023,16.8425 80.5689,17.6758 78.5,18C 79.3366,19.0113 79.67,20.1779 79.5,21.5C 75.8333,21.5 72.1667,21.5 68.5,21.5C 69.5361,19.6089 69.5361,17.7755 68.5,16C 69.1667,15.6667 69.8333,15.3333 70.5,15C 69.5842,14.7216 68.9175,14.2216 68.5,13.5 Z"/></g>
<g><path style="opacity:0.987" fill="#7192f4" d="M 90.5,13.5 C 92.9928,13.3291 94.8261,14.3291 96,16.5C 96.4999,33.8301 96.6666,51.1635 96.5,68.5C 95.7337,70.6843 95.0671,73.0177 94.5,75.5C 95.9213,79.0278 96.588,82.6945 96.5,86.5C 92.5,86.5 88.5,86.5 84.5,86.5C 83.5615,84.2436 83.5615,81.9103 84.5,79.5C 85.8333,79.5 87.1667,79.5 88.5,79.5C 88.8294,64.324 88.4961,49.324 87.5,34.5C 89.4554,33.5526 89.7887,32.2193 88.5,30.5C 89.3824,26.5815 90.0491,22.9148 90.5,19.5C 90.0233,18.5224 89.3567,17.6891 88.5,17C 89.9733,16.2904 90.6399,15.1238 90.5,13.5 Z"/></g>
<g><path style="opacity:0.95" fill="#7666f5" d="M 15.5,13.5 C 19.8333,13.5 24.1667,13.5 28.5,13.5C 28.0825,14.2216 27.4158,14.7216 26.5,15C 26.3389,17.0719 26.6722,19.2386 27.5,21.5C 24.8333,21.5 22.1667,21.5 19.5,21.5C 19.5,23.1667 19.5,24.8333 19.5,26.5C 24.5,26.5 29.5,26.5 34.5,26.5C 32.0314,27.3171 29.3647,27.8171 26.5,28C 24.4186,30.4113 24.4186,32.578 26.5,34.5C 24.1667,34.5 21.8333,34.5 19.5,34.5C 19.5,47.1667 19.5,59.8333 19.5,72.5C 17.9892,73.9575 16.9892,75.7908 16.5,78C 16.9437,79.5333 17.277,81.0333 17.5,82.5C 16.3316,91.259 15.3316,99.759 14.5,108C 15.3458,110.661 15.0125,113.661 13.5,117C 13.6158,118.268 13.9491,119.602 14.5,121C 13.7178,123.74 13.2178,126.574 13,129.5C 12.7216,128.584 12.2216,127.918 11.5,127.5C 11.5,97.1667 11.5,66.8333 11.5,36.5C 12.2389,36.631 12.9056,36.4643 13.5,36C 13.3528,34.0258 13.0195,32.0258 12.5,30C 12.9278,27.3713 13.9278,25.038 15.5,23C 12.93,20.0854 13.2634,17.4187 16.5,15C 15.944,14.6174 15.6107,14.1174 15.5,13.5 Z"/></g>
<g><path style="opacity:0.842" fill="#7662f5" d="M 15.5,13.5 C 15.6107,14.1174 15.944,14.6174 16.5,15C 13.2634,17.4187 12.93,20.0854 15.5,23C 13.9278,25.038 12.9278,27.3713 12.5,30C 13.0195,32.0258 13.3528,34.0258 13.5,36C 12.9056,36.4643 12.2389,36.631 11.5,36.5C 11.3337,29.825 11.5004,23.1583 12,16.5C 12.7202,14.9443 13.8868,13.9443 15.5,13.5 Z"/></g>
<g><path style="opacity:0.941" fill="#728cf4" d="M 81.5,13.5 C 84.5,13.5 87.5,13.5 90.5,13.5C 90.6399,15.1238 89.9733,16.2904 88.5,17C 89.3567,17.6891 90.0233,18.5224 90.5,19.5C 90.0491,22.9148 89.3824,26.5815 88.5,30.5C 89.7887,32.2193 89.4554,33.5526 87.5,34.5C 84.8333,34.5 82.1667,34.5 79.5,34.5C 78.6552,32.0883 78.6552,29.9216 79.5,28C 82.6946,27.8195 85.6946,27.3195 88.5,26.5C 88.5,24.8333 88.5,23.1667 88.5,21.5C 85.5,21.5 82.5,21.5 79.5,21.5C 79.67,20.1779 79.3366,19.0113 78.5,18C 80.5689,17.6758 80.9023,16.8425 79.5,15.5C 80.2427,14.8182 80.9094,14.1515 81.5,13.5 Z"/></g>
<g><path style="opacity:0.962" fill="#756df5" d="M 34.5,26.5 C 38.5,26.5 42.5,26.5 46.5,26.5C 46.5,26.8333 46.5,27.1667 46.5,27.5C 43.1667,27.5 39.8333,27.5 36.5,27.5C 36.0074,29.8056 35.6741,32.139 35.5,34.5C 32.5,34.5 29.5,34.5 26.5,34.5C 24.4186,32.578 24.4186,30.4113 26.5,28C 29.3647,27.8171 32.0314,27.3171 34.5,26.5 Z"/></g>
<g><path style="opacity:0.941" fill="#7573f5" d="M 46.5,27.5 C 45.0474,28.8249 45.3808,29.6582 47.5,30C 46.8333,30.3333 46.1667,30.6667 45.5,31C 46.1712,31.9862 46.1712,33.1529 45.5,34.5C 42.1667,34.5 38.8333,34.5 35.5,34.5C 35.6741,32.139 36.0074,29.8056 36.5,27.5C 39.8333,27.5 43.1667,27.5 46.5,27.5 Z"/></g>
<g><path style="opacity:0.938" fill="#7479f5" d="M 46.5,26.5 C 49.1667,26.5 51.8333,26.5 54.5,26.5C 55.209,27.404 56.209,27.7373 57.5,27.5C 56.4537,29.8817 56.4537,32.2151 57.5,34.5C 53.5,34.5 49.5,34.5 45.5,34.5C 46.1712,33.1529 46.1712,31.9862 45.5,31C 46.1667,30.6667 46.8333,30.3333 47.5,30C 45.3808,29.6582 45.0474,28.8249 46.5,27.5C 46.5,27.1667 46.5,26.8333 46.5,26.5 Z"/></g>
<g><path style="opacity:0.959" fill="#7380f5" d="M 54.5,26.5 C 61.5,26.5 68.5,26.5 75.5,26.5C 73.3926,27.4682 71.0593,27.8016 68.5,27.5C 68.298,29.9496 68.6314,32.283 69.5,34.5C 65.5,34.5 61.5,34.5 57.5,34.5C 56.4537,32.2151 56.4537,29.8817 57.5,27.5C 56.209,27.7373 55.209,27.404 54.5,26.5 Z"/></g>
<g><path style="opacity:0.968" fill="#7287f5" d="M 75.5,26.5 C 79.8333,26.5 84.1667,26.5 88.5,26.5C 85.6946,27.3195 82.6946,27.8195 79.5,28C 78.6552,29.9216 78.6552,32.0883 79.5,34.5C 76.1667,34.5 72.8333,34.5 69.5,34.5C 68.6314,32.283 68.298,29.9496 68.5,27.5C 71.0593,27.8016 73.3926,27.4682 75.5,26.5 Z"/></g>
<g><path style="opacity:0.957" fill="#7288f4" d="M 44.5,41.5 C 45.9187,40.5489 47.5853,40.2155 49.5,40.5C 48.7331,46.1167 48.0664,51.7833 47.5,57.5C 46.1667,58.1667 46.1667,58.8333 47.5,59.5C 46.7094,62.115 46.0427,64.7816 45.5,67.5C 45.1667,67.5 44.8333,67.5 44.5,67.5C 45.5549,58.6726 45.5549,50.0059 44.5,41.5 Z"/></g>
<g><path style="opacity:0.938" fill="#737ff5" d="M 44.5,41.5 C 45.5549,50.0059 45.5549,58.6726 44.5,67.5C 43.8333,68.8333 43.1667,70.1667 42.5,71.5C 42.8215,63.3572 43.4882,55.0239 44.5,46.5C 44.4573,45.5836 44.1239,44.9169 43.5,44.5C 43.5569,43.391 43.8902,42.391 44.5,41.5 Z"/></g>
<g><path style="opacity:0.952" fill="#7192f3" d="M 49.5,40.5 C 50.1667,40.5 50.5,40.8333 50.5,41.5C 50.5503,47.3895 49.8836,53.0562 48.5,58.5C 48.5,57.8333 48.1667,57.5 47.5,57.5C 48.0664,51.7833 48.7331,46.1167 49.5,40.5 Z"/></g>
<g><path style="opacity:1" fill="#737df4" d="M 65.5,41.5 C 66.209,40.596 67.209,40.2627 68.5,40.5C 68.5,42.8333 68.5,45.1667 68.5,47.5C 67.5084,47.6716 66.8417,47.3382 66.5,46.5C 66.7845,44.5853 66.4511,42.9187 65.5,41.5 Z"/></g>
<g><path style="opacity:0.913" fill="#7197f4" d="M 68.5,40.5 C 68.8333,40.5 69.1667,40.5 69.5,40.5C 69.2053,42.7354 69.5386,44.7354 70.5,46.5C 70.1583,47.3382 69.4916,47.6716 68.5,47.5C 68.5,45.1667 68.5,42.8333 68.5,40.5 Z"/></g>
<g><path style="opacity:0.998" fill="#7568f4" d="M 65.5,41.5 C 66.4511,42.9187 66.7845,44.5853 66.5,46.5C 64.31,45.2524 63.9766,43.5857 65.5,41.5 Z"/></g>
<g><path style="opacity:0.979" fill="#6ea6f3" d="M 69.5,40.5 C 72.4785,42.3477 72.8118,44.3477 70.5,46.5C 69.5386,44.7354 69.2053,42.7354 69.5,40.5 Z"/></g>
<g><path style="opacity:0.97" fill="#7479f5" d="M 43.5,44.5 C 44.1239,44.9169 44.4573,45.5836 44.5,46.5C 43.4882,55.0239 42.8215,63.3572 42.5,71.5C 42.5,72.1667 42.1667,72.5 41.5,72.5C 41.5012,64.4827 41.8345,56.4827 42.5,48.5C 42.4326,47.0413 42.7659,45.7079 43.5,44.5 Z"/></g>
<g><path style="opacity:0.989" fill="#7098f3" d="M 50.5,41.5 C 51.9238,43.5145 52.5905,45.8478 52.5,48.5C 51.3639,54.641 50.6972,60.9744 50.5,67.5C 50.1667,67.5 49.8333,67.5 49.5,67.5C 49.6294,64.9356 49.296,62.2689 48.5,59.5C 48.5,59.1667 48.5,58.8333 48.5,58.5C 49.8836,53.0562 50.5503,47.3895 50.5,41.5 Z"/></g>
<g><path style="opacity:0.939" fill="#6ea5f3" d="M 124.5,46.5 C 130.404,47.1153 135.071,49.782 138.5,54.5C 136.064,59.6221 135.231,64.9555 136,70.5C 135.623,71.9423 134.79,72.9423 133.5,73.5C 133.666,69.1539 133.499,64.8206 133,60.5C 131.488,57.1434 128.988,55.1434 125.5,54.5C 125.721,51.7212 125.388,49.0545 124.5,46.5 Z"/></g>
<g><path style="opacity:0.869" fill="#6f9ff4" d="M 111.5,46.5 C 115.833,46.5 120.167,46.5 124.5,46.5C 125.388,49.0545 125.721,51.7212 125.5,54.5C 121.5,54.5 117.5,54.5 113.5,54.5C 112.592,52.311 112.925,50.1443 114.5,48C 113.263,47.7679 112.263,47.2679 111.5,46.5 Z"/></g>
<g><path style="opacity:0.978" fill="#6f9ff4" d="M 52.5,48.5 C 53.3446,49.6715 54.0113,51.0048 54.5,52.5C 53.776,54.2184 53.1094,56.0517 52.5,58C 52.9574,58.414 53.2907,58.914 53.5,59.5C 52.9027,62.9713 52.236,66.3046 51.5,69.5C 51.6716,68.5084 51.3382,67.8417 50.5,67.5C 50.6972,60.9744 51.3639,54.641 52.5,48.5 Z"/></g>
<g><path style="opacity:0.933" fill="#7473f4" d="M 42.5,48.5 C 41.8345,56.4827 41.5012,64.4827 41.5,72.5C 41.1583,73.3382 40.4916,73.6716 39.5,73.5C 39.8851,68.0673 40.2184,62.0673 40.5,55.5C 40.7215,52.9327 41.3882,50.5994 42.5,48.5 Z"/></g>
<g><path style="opacity:0.948" fill="#6fa5f3" d="M 54.5,52.5 C 54.5569,53.609 54.8902,54.609 55.5,55.5C 54.6951,61.0158 54.0284,66.6825 53.5,72.5C 52.0937,72.0269 51.427,71.0269 51.5,69.5C 52.236,66.3046 52.9027,62.9713 53.5,59.5C 53.2907,58.914 52.9574,58.414 52.5,58C 53.1094,56.0517 53.776,54.2184 54.5,52.5 Z"/></g>
<g><path style="opacity:0.972" fill="#6eaaf4" d="M 138.5,54.5 C 138.987,55.4734 139.487,56.4734 140,57.5C 140.5,64.8258 140.666,72.1591 140.5,79.5C 141.833,79.5 143.167,79.5 144.5,79.5C 147.571,81.0519 148.237,83.3852 146.5,86.5C 142.833,86.5 139.167,86.5 135.5,86.5C 134.67,82.6212 135.003,78.7878 136.5,75C 136.167,74.8333 135.833,74.6667 135.5,74.5C 134.971,76.9468 134.304,78.6135 133.5,79.5C 133.5,77.5 133.5,75.5 133.5,73.5C 134.79,72.9423 135.623,71.9423 136,70.5C 135.231,64.9555 136.064,59.6221 138.5,54.5 Z"/></g>
<g><path style="opacity:0.879" fill="#756df4" d="M 40.5,55.5 C 40.2184,62.0673 39.8851,68.0673 39.5,73.5C 39.1667,73.5 38.8333,73.5 38.5,73.5C 38.6289,69.5234 38.6289,65.8567 38.5,62.5C 38.4095,59.8478 39.0762,57.5145 40.5,55.5 Z"/></g>
<g><path style="opacity:0.9" fill="#6eaaf4" d="M 55.5,55.5 C 55.8333,57.5 56.1667,59.5 56.5,61.5C 55.6403,65.4338 55.307,69.4338 55.5,73.5C 54.5084,73.6716 53.8417,73.3382 53.5,72.5C 54.0284,66.6825 54.6951,61.0158 55.5,55.5 Z"/></g>
<g><path style="opacity:1" fill="#747ef4" d="M 68.5,54.5 C 68.5,60.8333 68.5,67.1667 68.5,73.5C 67.5084,73.6716 66.8417,73.3382 66.5,72.5C 66.5,66.8333 66.5,61.1667 66.5,55.5C 67.1667,55.1667 67.8333,54.8333 68.5,54.5 Z"/></g>
<g><path style="opacity:1" fill="#7191f4" d="M 47.5,59.5 C 47.8333,59.5 48.1667,59.5 48.5,59.5C 49.296,62.2689 49.6294,64.9356 49.5,67.5C 48.1667,67.5 46.8333,67.5 45.5,67.5C 46.0427,64.7816 46.7094,62.115 47.5,59.5 Z"/></g>
<g><path style="opacity:0.973" fill="#6f9ff4" d="M 116.5,59.5 C 119.713,59.19 122.713,59.5233 125.5,60.5C 124.761,60.369 124.094,60.5357 123.5,61C 124.441,66.8809 124.108,73.0476 122.5,79.5C 123.274,81.8945 122.941,84.2278 121.5,86.5C 117.833,86.5 114.167,86.5 110.5,86.5C 110.261,84.5328 110.594,82.6995 111.5,81C 110.584,80.7216 109.918,80.2216 109.5,79.5C 113.167,79.5 116.833,79.5 120.5,79.5C 120.5,75.5 120.5,71.5 120.5,67.5C 118.5,67.5 116.5,67.5 114.5,67.5C 113.737,66.7321 112.737,66.2321 111.5,66C 112.406,64.3005 112.739,62.4672 112.5,60.5C 114.099,60.7678 115.432,60.4345 116.5,59.5 Z"/></g>
<g><path style="opacity:0.979" fill="#6ea4f4" d="M 125.5,60.5 C 126.75,60.5774 127.583,61.244 128,62.5C 128.499,68.1569 128.666,73.8236 128.5,79.5C 130.167,79.5 131.833,79.5 133.5,79.5C 134.304,78.6135 134.971,76.9468 135.5,74.5C 135.833,74.6667 136.167,74.8333 136.5,75C 135.003,78.7878 134.67,82.6212 135.5,86.5C 130.833,86.5 126.167,86.5 121.5,86.5C 122.941,84.2278 123.274,81.8945 122.5,79.5C 124.108,73.0476 124.441,66.8809 123.5,61C 124.094,60.5357 124.761,60.369 125.5,60.5 Z"/></g>
<g><path style="opacity:0.915" fill="#6db2f3" d="M 56.5,61.5 C 57.5644,64.1864 58.5644,67.0198 59.5,70C 58.9283,72.0736 57.595,73.2402 55.5,73.5C 55.307,69.4338 55.6403,65.4338 56.5,61.5 Z"/></g>
<g><path style="opacity:0.936" fill="#709ef4" d="M 68.5,54.5 C 69.7095,54.9321 70.7095,55.5987 71.5,56.5C 70.5119,61.6405 70.1786,66.9738 70.5,72.5C 70.1583,73.3382 69.4916,73.6716 68.5,73.5C 68.5,67.1667 68.5,60.8333 68.5,54.5 Z"/></g>
<g><path style="opacity:0.983" fill="#6db2f7" d="M 71.5,56.5 C 72.0523,59.1159 72.3856,61.7825 72.5,64.5C 72.7135,67.5267 72.0468,70.1934 70.5,72.5C 70.1786,66.9738 70.5119,61.6405 71.5,56.5 Z"/></g>
<g><path style="opacity:0.826" fill="#7666f4" d="M 38.5,62.5 C 38.6289,65.8567 38.6289,69.5234 38.5,73.5C 37.1882,72.8549 36.1882,71.8549 35.5,70.5C 36.2092,67.6156 37.2092,64.949 38.5,62.5 Z"/></g>
<g><path style="opacity:0.996" fill="#7667f4" d="M 66.5,55.5 C 66.5,61.1667 66.5,66.8333 66.5,72.5C 65.8826,72.3893 65.3826,72.056 65,71.5C 64.3333,66.8333 64.3333,62.1667 65,57.5C 65.2784,56.5842 65.7784,55.9175 66.5,55.5 Z"/></g>
<g><path style="opacity:0.992" fill="#7569f4" d="M 19.5,72.5 C 18.9898,75.3878 19.6565,77.7211 21.5,79.5C 20.6314,81.717 20.298,84.0504 20.5,86.5C 19.8529,87.2739 19.5195,88.2739 19.5,89.5C 19.6399,91.0296 20.3065,92.0296 21.5,92.5C 19.8516,94.4559 19.1849,96.7892 19.5,99.5C 21.4147,99.2155 23.0813,99.5489 24.5,100.5C 22.8333,100.5 21.1667,100.5 19.5,100.5C 19.5,101.833 19.5,103.167 19.5,104.5C 19.0203,112.13 18.0203,119.797 16.5,127.5C 17.2042,129.266 17.5375,130.933 17.5,132.5C 13.6509,132.981 11.6509,131.314 11.5,127.5C 12.2216,127.918 12.7216,128.584 13,129.5C 13.2178,126.574 13.7178,123.74 14.5,121C 13.9491,119.602 13.6158,118.268 13.5,117C 15.0125,113.661 15.3458,110.661 14.5,108C 15.3316,99.759 16.3316,91.259 17.5,82.5C 17.277,81.0333 16.9437,79.5333 16.5,78C 16.9892,75.7908 17.9892,73.9575 19.5,72.5 Z"/></g>
<g><path style="opacity:0.946" fill="#756df5" d="M 21.5,79.5 C 25.1667,79.5 28.8333,79.5 32.5,79.5C 32.0472,80.4584 31.3805,81.2917 30.5,82C 30.2144,83.3877 30.5477,84.8877 31.5,86.5C 27.8333,86.5 24.1667,86.5 20.5,86.5C 20.298,84.0504 20.6314,81.717 21.5,79.5 Z"/></g>
<g><path style="opacity:0.951" fill="#7573f5" d="M 32.5,79.5 C 35.5,79.5 38.5,79.5 41.5,79.5C 41.5,81.8333 41.5,84.1667 41.5,86.5C 38.1667,86.5 34.8333,86.5 31.5,86.5C 30.5477,84.8877 30.2144,83.3877 30.5,82C 31.3805,81.2917 32.0472,80.4584 32.5,79.5 Z"/></g>
<g><path style="opacity:0.946" fill="#7479f5" d="M 41.5,79.5 C 44.8333,79.5 48.1667,79.5 51.5,79.5C 51.298,81.9496 51.6314,84.283 52.5,86.5C 48.8333,86.5 45.1667,86.5 41.5,86.5C 41.5,84.1667 41.5,81.8333 41.5,79.5 Z"/></g>
<g><path style="opacity:0.949" fill="#7380f5" d="M 51.5,79.5 C 55.1667,79.5 58.8333,79.5 62.5,79.5C 63.0906,80.1515 63.7573,80.8182 64.5,81.5C 63.6906,83.0709 63.3573,84.7376 63.5,86.5C 59.8333,86.5 56.1667,86.5 52.5,86.5C 51.6314,84.283 51.298,81.9496 51.5,79.5 Z"/></g>
<g><path style="opacity:0.933" fill="#7286f5" d="M 62.5,79.5 C 66.5,79.5 70.5,79.5 74.5,79.5C 74.0825,80.2216 73.4158,80.7216 72.5,81C 72.5649,82.8288 72.8982,84.6621 73.5,86.5C 70.1667,86.5 66.8333,86.5 63.5,86.5C 63.3573,84.7376 63.6906,83.0709 64.5,81.5C 63.7573,80.8182 63.0906,80.1515 62.5,79.5 Z"/></g>
<g><path style="opacity:0.977" fill="#718df4" d="M 74.5,79.5 C 77.8333,79.5 81.1667,79.5 84.5,79.5C 83.5615,81.9103 83.5615,84.2436 84.5,86.5C 84.1667,86.5 83.8333,86.5 83.5,86.5C 82.79,88.8927 82.1233,91.3927 81.5,94C 82.3148,97.245 82.6482,100.412 82.5,103.5C 80.2192,105.674 80.2192,107.674 82.5,109.5C 80.6189,111.265 80.2856,113.432 81.5,116C 81.3248,117.658 80.6582,118.991 79.5,120C 80.1667,120.667 80.8333,121.333 81.5,122C 80.2274,124.193 79.894,126.36 80.5,128.5C 77.972,129.517 77.972,130.684 80.5,132C 79.8333,132.667 79.1667,133.333 78.5,134C 79.2374,137.064 79.5708,140.064 79.5,143C 79.0245,144.763 78.3578,146.43 77.5,148C 77.8333,148.333 78.1667,148.667 78.5,149C 77.3892,154.966 76.7225,160.799 76.5,166.5C 75.5166,162.702 75.1832,158.702 75.5,154.5C 73.1667,154.5 70.8333,154.5 68.5,154.5C 67.3132,152.025 67.6465,149.691 69.5,147.5C 71.5,147.5 73.5,147.5 75.5,147.5C 75.5,142.5 75.5,137.5 75.5,132.5C 73.8333,132.5 72.1667,132.5 70.5,132.5C 69.7365,129.922 69.7365,127.589 70.5,125.5C 72.1667,125.5 73.8333,125.5 75.5,125.5C 75.5,117.167 75.5,108.833 75.5,100.5C 74.791,99.596 73.791,99.2627 72.5,99.5C 73.0522,97.6693 73.0522,96.0026 72.5,94.5C 73.6016,93.8243 74.6016,93.1577 75.5,92.5C 75.9746,89.9179 75.3079,87.9179 73.5,86.5C 72.8982,84.6621 72.5649,82.8288 72.5,81C 73.4158,80.7216 74.0825,80.2216 74.5,79.5 Z"/></g>
<g><path style="opacity:0.954" fill="#6db3f4" d="M 144.5,79.5 C 150.69,79.1771 156.69,79.5104 162.5,80.5C 161.746,83.0227 161.08,85.6894 160.5,88.5C 160.534,92.3641 160.534,96.1974 160.5,100C 157.833,100.667 157.833,101.333 160.5,102C 158.845,104.247 158.512,106.58 159.5,109C 159,109.5 158.5,110 158,110.5C 157.829,102.323 157.329,94.3228 156.5,86.5C 153.167,86.5 149.833,86.5 146.5,86.5C 148.237,83.3852 147.571,81.0519 144.5,79.5 Z"/></g>
<g><path style="opacity:0.997" fill="#6cb7f3" d="M 162.5,80.5 C 162.833,80.5 163.167,80.5 163.5,80.5C 163.5,109.833 163.5,139.167 163.5,168.5C 159.833,168.5 156.167,168.5 152.5,168.5C 152.953,167.542 153.619,166.708 154.5,166C 155.048,164.404 154.382,163.237 152.5,162.5C 153.833,162.5 155.167,162.5 156.5,162.5C 156.5,137.167 156.5,111.833 156.5,86.5C 157.329,94.3228 157.829,102.323 158,110.5C 158.5,110 159,109.5 159.5,109C 158.512,106.58 158.845,104.247 160.5,102C 157.833,101.333 157.833,100.667 160.5,100C 160.534,96.1974 160.534,92.3641 160.5,88.5C 161.08,85.6894 161.746,83.0227 162.5,80.5 Z"/></g>
<g><path style="opacity:0.942" fill="#756df5" d="M 21.5,92.5 C 24.5,92.5 27.5,92.5 30.5,92.5C 31.5285,93.7874 31.1952,94.9541 29.5,96C 30.4239,97.15 30.4239,98.15 29.5,99C 32.8168,99.4983 36.1501,99.665 39.5,99.5C 39.5,99.8333 39.5,100.167 39.5,100.5C 34.5,100.5 29.5,100.5 24.5,100.5C 23.0813,99.5489 21.4147,99.2155 19.5,99.5C 19.1849,96.7892 19.8516,94.4559 21.5,92.5 Z"/></g>
<g><path style="opacity:0.959" fill="#7473f5" d="M 30.5,92.5 C 33.8333,92.5 37.1667,92.5 40.5,92.5C 39.7316,94.911 39.3982,97.2444 39.5,99.5C 36.1501,99.665 32.8168,99.4983 29.5,99C 30.4239,98.15 30.4239,97.15 29.5,96C 31.1952,94.9541 31.5285,93.7874 30.5,92.5 Z"/></g>
<g><path style="opacity:0.956" fill="#7479f5" d="M 40.5,92.5 C 44.5,92.5 48.5,92.5 52.5,92.5C 52.6068,94.3786 52.1068,94.7119 51,93.5C 50.5045,95.4727 50.3379,97.4727 50.5,99.5C 48.2646,99.2053 46.2646,99.5386 44.5,100.5C 42.8333,100.5 41.1667,100.5 39.5,100.5C 39.5,100.167 39.5,99.8333 39.5,99.5C 39.3982,97.2444 39.7316,94.911 40.5,92.5 Z"/></g>
<g><path style="opacity:0.932" fill="#7380f5" d="M 52.5,92.5 C 56.5,92.5 60.5,92.5 64.5,92.5C 61.8333,95.1667 61.8333,97.8333 64.5,100.5C 57.8333,100.5 51.1667,100.5 44.5,100.5C 46.2646,99.5386 48.2646,99.2053 50.5,99.5C 50.3379,97.4727 50.5045,95.4727 51,93.5C 52.1068,94.7119 52.6068,94.3786 52.5,92.5 Z"/></g>
<g><path style="opacity:0.948" fill="#7286f5" d="M 64.5,92.5 C 68.1667,92.5 71.8333,92.5 75.5,92.5C 74.6016,93.1577 73.6016,93.8243 72.5,94.5C 73.0522,96.0026 73.0522,97.6693 72.5,99.5C 73.791,99.2627 74.791,99.596 75.5,100.5C 71.8333,100.5 68.1667,100.5 64.5,100.5C 61.8333,97.8333 61.8333,95.1667 64.5,92.5 Z"/></g>
<g><path style="opacity:0.978" fill="#7574f5" d="M 105.5,107.5 C 105.083,104.841 104.083,102.508 102.5,100.5C 104.715,98.4263 107.215,98.0929 110,99.5C 111.279,103.723 109.779,106.389 105.5,107.5 Z"/></g>
<g><path style="opacity:0.91" fill="#6f9ef4" d="M 136.5,100.5 C 136.5,103.5 136.5,106.5 136.5,109.5C 133.555,107.407 131.221,104.907 129.5,102C 130.138,98.7072 132.138,97.7072 135.5,99C 136.056,99.3826 136.389,99.8826 136.5,100.5 Z"/></g>
<g><path style="opacity:0.954" fill="#756df5" d="M 102.5,100.5 C 104.083,102.508 105.083,104.841 105.5,107.5C 104.167,109.167 102.833,110.833 101.5,112.5C 100.833,109.5 100.167,106.5 99.5,103.5C 100.167,102.167 101.167,101.167 102.5,100.5 Z"/></g>
<g><path style="opacity:0.897" fill="#6ea5f4" d="M 136.5,100.5 C 138.749,101.08 140.415,102.413 141.5,104.5C 139.95,107.441 139.283,110.441 139.5,113.5C 138.512,112.205 137.512,110.872 136.5,109.5C 136.5,106.5 136.5,103.5 136.5,100.5 Z"/></g>
<g><path style="opacity:1" fill="#7572f5" d="M 119.5,92.5 C 119.5,100.167 119.5,107.833 119.5,115.5C 118.542,115.047 117.708,114.381 117,113.5C 116.169,106.808 116.336,100.142 117.5,93.5C 118.183,93.1373 118.85,92.8039 119.5,92.5 Z"/></g>
<g><path style="opacity:0.945" fill="#6eabf3" d="M 141.5,104.5 C 143.063,105.945 144.396,107.611 145.5,109.5C 144.661,110.641 143.994,111.974 143.5,113.5C 144.408,115.612 144.408,117.945 143.5,120.5C 143.36,122.03 142.693,123.03 141.5,123.5C 141.453,120.031 140.787,116.698 139.5,113.5C 139.283,110.441 139.95,107.441 141.5,104.5 Z"/></g>
<g><path style="opacity:0.999" fill="#7193f4" d="M 119.5,92.5 C 120.492,92.3284 121.158,92.6618 121.5,93.5C 121.5,100.5 121.5,107.5 121.5,114.5C 121.158,115.338 120.492,115.672 119.5,115.5C 119.5,107.833 119.5,100.167 119.5,92.5 Z"/></g>
<g><path style="opacity:0.937" fill="#6dabf4" d="M 121.5,93.5 C 122.117,93.6107 122.617,93.944 123,94.5C 123.667,100.833 123.667,107.167 123,113.5C 122.617,114.056 122.117,114.389 121.5,114.5C 121.5,107.5 121.5,100.5 121.5,93.5 Z"/></g>
<g><path style="opacity:0.999" fill="#7193f4" d="M 52.5,105.5 C 52.5,108.833 52.5,112.167 52.5,115.5C 52.4456,117.632 51.4456,118.965 49.5,119.5C 49.5,115.5 49.5,111.5 49.5,107.5C 49.9731,106.094 50.9731,105.427 52.5,105.5 Z"/></g>
<g><path style="opacity:0.998" fill="#6caef4" d="M 69.5,107.5 C 70.7944,109.68 70.4611,111.68 68.5,113.5C 68.2053,111.265 68.5386,109.265 69.5,107.5 Z"/></g>
<g><path style="opacity:1" fill="#7196f5" d="M 33.5,108.5 C 34.1667,108.5 34.8333,108.5 35.5,108.5C 34.7094,111.115 34.0427,113.782 33.5,116.5C 32.8333,116.5 32.1667,116.5 31.5,116.5C 32.0427,113.782 32.7094,111.115 33.5,108.5 Z"/></g>
<g><path style="opacity:0.974" fill="#6ea6f4" d="M 52.5,105.5 C 56.2351,108.666 56.2351,111.999 52.5,115.5C 52.5,112.167 52.5,108.833 52.5,105.5 Z"/></g>
<g><path style="opacity:0.936" fill="#737cf4" d="M 64.5,106.5 C 64.5,110.833 64.5,115.167 64.5,119.5C 63.8333,119.5 63.1667,119.5 62.5,119.5C 62.5,116.5 62.5,113.5 62.5,110.5C 62.6596,108.847 63.3263,107.514 64.5,106.5 Z"/></g>
<g><path style="opacity:0.933" fill="#7760f4" d="M 96.5,107.5 C 96.2208,110.118 95.5541,112.618 94.5,115C 95.0262,119.092 95.0262,123.759 94.5,129C 94.0463,131.03 93.3796,132.863 92.5,134.5C 89.0425,124.706 90.3759,115.706 96.5,107.5 Z"/></g>
<g><path style="opacity:0.948" fill="#6db1f3" d="M 145.5,109.5 C 151.631,122.116 150.297,133.783 141.5,144.5C 142.335,140.249 142.668,136.415 142.5,133C 141.906,132.536 141.239,132.369 140.5,132.5C 141.299,129.57 141.632,126.57 141.5,123.5C 142.693,123.03 143.36,122.03 143.5,120.5C 144.408,117.945 144.408,115.612 143.5,113.5C 143.994,111.974 144.661,110.641 145.5,109.5 Z"/></g>
<g><path style="opacity:0.998" fill="#737ef6" d="M 29.5,108.5 C 30.1667,108.5 30.8333,108.5 31.5,108.5C 30.612,111.054 30.2786,113.721 30.5,116.5C 29.8333,116.5 29.1667,116.5 28.5,116.5C 28.4013,113.763 28.7347,111.096 29.5,108.5 Z"/></g>
<g><path style="opacity:0.999" fill="#7288f5" d="M 31.5,108.5 C 32.1667,108.5 32.8333,108.5 33.5,108.5C 32.7094,111.115 32.0427,113.782 31.5,116.5C 31.1667,116.5 30.8333,116.5 30.5,116.5C 30.2786,113.721 30.612,111.054 31.5,108.5 Z"/></g>
<g><path style="opacity:0.999" fill="#6f9ff3" d="M 35.5,108.5 C 36.1667,108.5 36.5,108.833 36.5,109.5C 35.6314,111.717 35.298,114.05 35.5,116.5C 34.8333,116.5 34.1667,116.5 33.5,116.5C 34.0427,113.782 34.7094,111.115 35.5,108.5 Z"/></g>
<g><path style="opacity:0.999" fill="#6dacf3" d="M 36.5,109.5 C 39.2436,110.072 40.0769,111.738 39,114.5C 38.1841,115.823 37.0174,116.489 35.5,116.5C 35.298,114.05 35.6314,111.717 36.5,109.5 Z"/></g>
<g><path style="opacity:0.995" fill="#7190f3" d="M 83.5,86.5 C 83.5,111.833 83.5,137.167 83.5,162.5C 85.5,162.5 87.5,162.5 89.5,162.5C 89.0825,163.222 88.4158,163.722 87.5,164C 88.1667,164.333 88.8333,164.667 89.5,165C 88.3157,166.145 88.3157,167.312 89.5,168.5C 85.1667,168.5 80.8333,168.5 76.5,168.5C 76.5,167.833 76.5,167.167 76.5,166.5C 76.7225,160.799 77.3892,154.966 78.5,149C 78.1667,148.667 77.8333,148.333 77.5,148C 78.3578,146.43 79.0245,144.763 79.5,143C 79.5708,140.064 79.2374,137.064 78.5,134C 79.1667,133.333 79.8333,132.667 80.5,132C 77.972,130.684 77.972,129.517 80.5,128.5C 79.894,126.36 80.2274,124.193 81.5,122C 80.8333,121.333 80.1667,120.667 79.5,120C 80.6582,118.991 81.3248,117.658 81.5,116C 80.2856,113.432 80.6189,111.265 82.5,109.5C 80.2192,107.674 80.2192,105.674 82.5,103.5C 82.6482,100.412 82.3148,97.245 81.5,94C 82.1233,91.3927 82.79,88.8927 83.5,86.5 Z"/></g>
<g><path style="opacity:0.892" fill="#766cf5" d="M 47.5,111.5 C 47.5,114.167 47.5,116.833 47.5,119.5C 44.9405,116.91 44.9405,114.243 47.5,111.5 Z"/></g>
<g><path style="opacity:0.999" fill="#756bf4" d="M 29.5,108.5 C 28.7347,111.096 28.4013,113.763 28.5,116.5C 24.19,115.235 23.5233,112.902 26.5,109.5C 27.4168,108.873 28.4168,108.539 29.5,108.5 Z"/></g>
<g><path style="opacity:0.999" fill="#7192f4" d="M 66.5,105.5 C 66.185,109.371 66.5184,113.038 67.5,116.5C 66.8333,117.833 65.8333,118.833 64.5,119.5C 64.5,115.167 64.5,110.833 64.5,106.5C 65.1667,106.167 65.8333,105.833 66.5,105.5 Z"/></g>
<g><path style="opacity:0.937" fill="#747af4" d="M 49.5,107.5 C 49.5,111.5 49.5,115.5 49.5,119.5C 48.8333,119.5 48.1667,119.5 47.5,119.5C 47.5,116.833 47.5,114.167 47.5,111.5C 47.6596,109.847 48.3263,108.514 49.5,107.5 Z"/></g>
<g><path style="opacity:0.875" fill="#7570f4" d="M 62.5,110.5 C 62.5,113.5 62.5,116.5 62.5,119.5C 61.8333,119.5 61.5,119.167 61.5,118.5C 61.7845,116.585 61.4511,114.919 60.5,113.5C 60.9321,112.29 61.5987,111.29 62.5,110.5 Z"/></g>
<g><path style="opacity:0.812" fill="#6f9ff4" d="M 66.5,105.5 C 68.0269,105.427 69.0269,106.094 69.5,107.5C 68.5386,109.265 68.2053,111.265 68.5,113.5C 68.4431,114.609 68.1098,115.609 67.5,116.5C 66.5184,113.038 66.185,109.371 66.5,105.5 Z"/></g>
<g><path style="opacity:0.95" fill="#7667f5" d="M 99.5,103.5 C 100.167,106.5 100.833,109.5 101.5,112.5C 98.2204,118.509 97.2204,124.842 98.5,131.5C 97.5701,135.4 97.2367,139.4 97.5,143.5C 95.0764,140.992 93.4097,137.992 92.5,134.5C 93.3796,132.863 94.0463,131.03 94.5,129C 95.0262,123.759 95.0262,119.092 94.5,115C 95.5541,112.618 96.2208,110.118 96.5,107.5C 96.7376,105.596 97.7376,104.262 99.5,103.5 Z"/></g>
<g><path style="opacity:0.686" fill="#7566f5" d="M 60.5,113.5 C 61.4511,114.919 61.7845,116.585 61.5,118.5C 59.2157,117.323 58.8823,115.656 60.5,113.5 Z"/></g>
<g><path style="opacity:0.946" fill="#766df4" d="M 19.5,104.5 C 19.5,111.5 19.5,118.5 19.5,125.5C 22.8333,125.5 26.1667,125.5 29.5,125.5C 27.1663,127.176 26.1663,129.509 26.5,132.5C 23.5,132.5 20.5,132.5 17.5,132.5C 17.5375,130.933 17.2042,129.266 16.5,127.5C 18.0203,119.797 19.0203,112.13 19.5,104.5 Z"/></g>
<g><path style="opacity:0.938" fill="#7573f5" d="M 29.5,125.5 C 32.1667,125.5 34.8333,125.5 37.5,125.5C 37.5,127.833 37.5,130.167 37.5,132.5C 33.8333,132.5 30.1667,132.5 26.5,132.5C 26.1663,129.509 27.1663,127.176 29.5,125.5 Z"/></g>
<g><path style="opacity:0.932" fill="#7479f5" d="M 37.5,125.5 C 40.5,125.5 43.5,125.5 46.5,125.5C 47.3186,127.772 47.9853,130.106 48.5,132.5C 44.8333,132.5 41.1667,132.5 37.5,132.5C 37.5,130.167 37.5,127.833 37.5,125.5 Z"/></g>
<g><path style="opacity:0.927" fill="#7380f5" d="M 46.5,125.5 C 50.5,125.5 54.5,125.5 58.5,125.5C 59.3686,127.717 59.702,130.05 59.5,132.5C 55.8333,132.5 52.1667,132.5 48.5,132.5C 47.9853,130.106 47.3186,127.772 46.5,125.5 Z"/></g>
<g><path style="opacity:0.928" fill="#7286f5" d="M 58.5,125.5 C 62.5,125.5 66.5,125.5 70.5,125.5C 69.7365,127.589 69.7365,129.922 70.5,132.5C 66.8333,132.5 63.1667,132.5 59.5,132.5C 59.702,130.05 59.3686,127.717 58.5,125.5 Z"/></g>
<g><path style="opacity:0.905" fill="#756df4" d="M 98.5,131.5 C 100.008,133.181 101.008,135.181 101.5,137.5C 100.841,140.455 100.508,143.455 100.5,146.5C 99.1667,145.833 98.1667,144.833 97.5,143.5C 97.2367,139.4 97.5701,135.4 98.5,131.5 Z"/></g>
<g><path style="opacity:0.961" fill="#6dabf3" d="M 140.5,132.5 C 141.239,132.369 141.906,132.536 142.5,133C 142.668,136.415 142.335,140.249 141.5,144.5C 140.415,146.587 138.749,147.92 136.5,148.5C 137.326,145.004 137.326,142.004 136.5,139.5C 138.086,137.33 139.42,134.996 140.5,132.5 Z"/></g>
<g><path style="opacity:0.958" fill="#7473f4" d="M 101.5,137.5 C 103.167,138.5 104.5,139.833 105.5,141.5C 104.733,142.172 104.066,143.005 103.5,144C 103.652,145.924 103.652,147.758 103.5,149.5C 102.167,148.833 101.167,147.833 100.5,146.5C 100.508,143.455 100.841,140.455 101.5,137.5 Z"/></g>
<g><path style="opacity:0.959" fill="#6fa5f3" d="M 136.5,139.5 C 137.326,142.004 137.326,145.004 136.5,148.5C 135.341,150.25 133.674,151.25 131.5,151.5C 132.265,148.904 132.599,146.237 132.5,143.5C 133.5,141.833 134.833,140.5 136.5,139.5 Z"/></g>
<g><path style="opacity:0.903" fill="#7479f4" d="M 105.5,141.5 C 106.833,142.167 107.833,143.167 108.5,144.5C 107.715,146.374 107.048,148.374 106.5,150.5C 105.391,150.443 104.391,150.11 103.5,149.5C 103.652,147.758 103.652,145.924 103.5,144C 104.066,143.005 104.733,142.172 105.5,141.5 Z"/></g>
<g><path style="opacity:0.981" fill="#7665f4" d="M 6.5,116.5 C 6.5,131.833 6.5,147.167 6.5,162.5C 8.83333,162.5 11.1667,162.5 13.5,162.5C 13.4828,164.565 13.1495,166.565 12.5,168.5C 8.5,168.5 4.5,168.5 0.5,168.5C 0.0845687,165.937 0.751235,163.437 2.5,161C 2.16667,159.333 1.83333,157.667 1.5,156C 2.16667,155.667 2.83333,155.333 3.5,155C 2.28414,148.069 2.61747,141.236 4.5,134.5C 4.25284,131.656 3.91951,128.823 3.5,126C 4.16667,124 4.83333,122 5.5,120C 2.88185,118.256 3.21519,117.089 6.5,116.5 Z"/></g>
<g><path style="opacity:0.951" fill="#6f9ff3" d="M 132.5,143.5 C 132.599,146.237 132.265,148.904 131.5,151.5C 131.158,152.338 130.492,152.672 129.5,152.5C 128.624,152.631 127.957,152.298 127.5,151.5C 128.248,149.584 128.248,147.584 127.5,145.5C 129.05,144.559 130.716,143.893 132.5,143.5 Z"/></g>
<g><path style="opacity:0.919" fill="#7380f4" d="M 108.5,144.5 C 109.609,144.557 110.609,144.89 111.5,145.5C 111.702,147.95 111.369,150.283 110.5,152.5C 108.847,152.34 107.514,151.674 106.5,150.5C 107.048,148.374 107.715,146.374 108.5,144.5 Z"/></g>
<g><path style="opacity:0.891" fill="#7286f4" d="M 111.5,145.5 C 113.117,146.038 114.784,146.371 116.5,146.5C 114.832,148.479 114.166,150.812 114.5,153.5C 112.901,153.768 111.568,153.434 110.5,152.5C 111.369,150.283 111.702,147.95 111.5,145.5 Z"/></g>
<g><path style="opacity:0.922" fill="#7099f4" d="M 127.5,145.5 C 128.248,147.584 128.248,149.584 127.5,151.5C 127.957,152.298 128.624,152.631 129.5,152.5C 127.698,153.458 125.698,154.125 123.5,154.5C 122.167,151.833 122.167,149.167 123.5,146.5C 124.959,146.567 126.292,146.234 127.5,145.5 Z"/></g>
<g><path style="opacity:0.962" fill="#756ef5" d="M 26.5,147.5 C 25.0064,149.873 24.6731,152.206 25.5,154.5C 25.7744,159.263 25.441,163.93 24.5,168.5C 20.5,168.5 16.5,168.5 12.5,168.5C 13.1495,166.565 13.4828,164.565 13.5,162.5C 15.1667,162.5 16.8333,162.5 18.5,162.5C 18.3342,157.821 18.5008,153.155 19,148.5C 21.3806,147.565 23.8806,147.232 26.5,147.5 Z"/></g>
<g><path style="opacity:0.936" fill="#7573f5" d="M 26.5,147.5 C 29.5,147.5 32.5,147.5 35.5,147.5C 35.8151,150.211 35.1484,152.544 33.5,154.5C 30.8333,154.5 28.1667,154.5 25.5,154.5C 24.6731,152.206 25.0064,149.873 26.5,147.5 Z"/></g>
<g><path style="opacity:0.932" fill="#7479f5" d="M 35.5,147.5 C 38.5,147.5 41.5,147.5 44.5,147.5C 45.7044,149.903 46.0378,152.236 45.5,154.5C 41.5,154.5 37.5,154.5 33.5,154.5C 35.1484,152.544 35.8151,150.211 35.5,147.5 Z"/></g>
<g><path style="opacity:0.927" fill="#7380f5" d="M 44.5,147.5 C 48.5,147.5 52.5,147.5 56.5,147.5C 57.3686,149.717 57.702,152.05 57.5,154.5C 53.5,154.5 49.5,154.5 45.5,154.5C 46.0378,152.236 45.7044,149.903 44.5,147.5 Z"/></g>
<g><path style="opacity:0.917" fill="#7286f5" d="M 56.5,147.5 C 60.8333,147.5 65.1667,147.5 69.5,147.5C 67.6465,149.691 67.3132,152.025 68.5,154.5C 64.8333,154.5 61.1667,154.5 57.5,154.5C 57.702,152.05 57.3686,149.717 56.5,147.5 Z"/></g>
<g><path style="opacity:0.973" fill="#728cf5" d="M 116.5,146.5 C 117.492,146.328 118.158,146.662 118.5,147.5C 118.702,149.95 118.369,152.283 117.5,154.5C 116.209,154.737 115.209,154.404 114.5,153.5C 114.166,150.812 114.832,148.479 116.5,146.5 Z"/></g>
<g><path style="opacity:0.961" fill="#7192f4" d="M 123.5,146.5 C 122.167,149.167 122.167,151.833 123.5,154.5C 121.5,154.5 119.5,154.5 117.5,154.5C 118.369,152.283 118.702,149.95 118.5,147.5C 120.216,147.371 121.883,147.038 123.5,146.5 Z"/></g>
<g><path style="opacity:0.977" fill="#7198f4" d="M 89.5,162.5 C 93.1667,162.5 96.8333,162.5 100.5,162.5C 99.6586,164.379 99.3253,166.379 99.5,168.5C 96.1667,168.5 92.8333,168.5 89.5,168.5C 88.3157,167.312 88.3157,166.145 89.5,165C 88.8333,164.667 88.1667,164.333 87.5,164C 88.4158,163.722 89.0825,163.222 89.5,162.5 Z"/></g>
<g><path style="opacity:0.964" fill="#6f9df3" d="M 100.5,162.5 C 102.857,162.337 105.19,162.503 107.5,163C 109.635,164.556 109.968,166.389 108.5,168.5C 105.5,168.5 102.5,168.5 99.5,168.5C 99.3253,166.379 99.6586,164.379 100.5,162.5 Z"/></g>
<g><path style="opacity:0.969" fill="#7289f4" d="M 118.5,162.5 C 119.167,162.5 119.833,162.5 120.5,162.5C 120.5,164.5 120.5,166.5 120.5,168.5C 119.833,168.5 119.167,168.5 118.5,168.5C 118.5,166.5 118.5,164.5 118.5,162.5 Z"/></g>
<g><path style="opacity:0.968" fill="#6eacf3" d="M 140.5,162.5 C 140.029,164.579 139.363,166.579 138.5,168.5C 136.167,168.5 133.833,168.5 131.5,168.5C 130.185,166.865 130.185,165.199 131.5,163.5C 134.428,162.516 137.428,162.183 140.5,162.5 Z"/></g>
<g><path style="opacity:0.981" fill="#6db1f4" d="M 140.5,162.5 C 144.5,162.5 148.5,162.5 152.5,162.5C 154.382,163.237 155.048,164.404 154.5,166C 153.619,166.708 152.953,167.542 152.5,168.5C 147.833,168.5 143.167,168.5 138.5,168.5C 139.363,166.579 140.029,164.579 140.5,162.5 Z"/></g>
<g><path style="opacity:0.958" fill="#756df4" d="M 118.5,162.5 C 118.5,164.5 118.5,166.5 118.5,168.5C 117.833,168.5 117.167,168.5 116.5,168.5C 116.054,165.99 116.72,163.99 118.5,162.5 Z"/></g>
<g><path style="opacity:0.5" fill="#6ea8f3" d="M 120.5,162.5 C 123.599,163.533 124.266,165.533 122.5,168.5C 121.833,168.5 121.167,168.5 120.5,168.5C 120.5,166.5 120.5,164.5 120.5,162.5 Z"/></g>
</svg>
